<!-- https://www.svgrepo.com/collection/seo-and-analytics-2/ -->
<svg xmlns="http://www.w3.org/2000/svg" xmlns:xlink="http://www.w3.org/1999/xlink" width="0" height="0" style="position:absolute">
	<symbol id="ic_sidepanel_classification" viewbox="10 11 20 22">
		<path class="st0" d="M28.5 21.6c.4.4.5.8.5 1.3s-.2.9-.5 1.2l-6.3 6.3c-.4.3-.8.5-1.3.5s-.9-.2-1.2-.5l-8.1-8.1c-.4-.3-.6-.7-.6-1.2v-6.3c0-.5.2-.9.5-1.2.4-.4.8-.5 1.3-.5h6.3c.5 0 .9.2 1.3.5l8.1 8zm-15.3-4.5c.3.3.6.4.9.4.4 0 .7-.1 1-.4s.4-.6.4-1-.1-.7-.4-1c-.3-.3-.6-.4-1-.4s-.7.1-.9.4c-.3.3-.4.6-.4 1s.1.7.4 1z"></path>
	</symbol>
	<symbol id="feature-a" viewBox="0 0 512 512">
		<path style="fill:#ffdd09" d="M485.4 111H24.6V24.6c0-9.3 6.8-16.2 16.2-16.2H470c8.6 0 16.3 6.9 16.3 16.2V111h-.9z" transform="translate(1)"/><path style="fill:#ffdd09" d="M374.5 503.5h93.8c9.4 0 17.1-8.6 17.1-18.8V110.9H24.6v373.8c0 10.2 7.7 18.8 17 18.8h332.9z" transform="translate(1)"/><path style="fill:#fff" d="M24.6 484.7v-460c0-9.3 6.8-16.2 16.2-16.2h-17c-9.4 0-16.3 6.9-16.3 16.2v460a19 19 0 0 0 18.8 18.8h15.4c-9.4 0-17.1-8.6-17.1-18.8" transform="translate(1)"/><path style="fill:#fd9808" d="M486.3 8.5h-17.1c8.5 0 16.2 6.9 16.2 16.2v460c0 10.2-7.7 18.8-17 18.8h15.3a19 19 0 0 0 18.8-18.8v-460c0-9.3-6.9-16.2-16.2-16.2" transform="translate(1)"/><path style="fill:#54c9fd" d="M84.3 59.7c0 14.5-11 25.6-25.6 25.6s-25.6-11-25.6-25.6 11.1-25.6 25.6-25.6 25.6 11.1 25.6 25.6M161.1 59.7c0 14.5-11 25.6-25.6 25.6S110 74.3 110 59.7s11.1-25.6 25.6-25.6 25.6 11.1 25.6 25.6M238 59.7c0 14.5-11.2 25.6-25.7 25.6s-25.6-11-25.6-25.6 11.1-25.6 25.6-25.6S238 45.2 238 59.7" transform="translate(1)"/><path style="fill:#1cd759" d="M459.8 307.2c0 18.8-15.4 34.1-34.1 34.1s-34.2-15.3-34.2-34.1a34.2 34.2 0 0 1 68.3 0M263.5 384c0 18.8-15.3 34.1-34.1 34.1a34.2 34.2 0 0 1 0-68.2 34.2 34.2 0 0 1 34.1 34.1" transform="translate(1)"/><path style="fill:#54c9fd" d="M118.5 307.2a34.2 34.2 0 1 1-34.1-34.1 34.2 34.2 0 0 1 34 34.1M340.3 221.9c0 18.7-15.3 34.1-34.1 34.1a34.2 34.2 0 0 1 0-68.3 34.2 34.2 0 0 1 34.1 34.2" transform="translate(1)"/><path d="M59.7 93.9a34.2 34.2 0 1 1 34.1-34.1 34.2 34.2 0 0 1-34 34zm0-51.2c-9.4 0-17 7.6-17 17s7.6 17.1 17 17.1 17.1-7.7 17.1-17-7.7-17.1-17-17.1zM136.5 93.9a34.2 34.2 0 1 1 34.1-34.1 34.2 34.2 0 0 1-34 34zm0-51.2c-9.4 0-17 7.6-17 17s7.6 17.1 17 17.1 17.1-7.7 17.1-17-7.7-17.1-17-17.1zM213.3 93.9a34.2 34.2 0 1 1 34.1-34.1 34.2 34.2 0 0 1-34 34zm0-51.2c-9.4 0-17 7.6-17 17s7.6 17.1 17 17.1 17.1-7.7 17.1-17-7.7-17.1-17-17.1z"/><path d="M512 119.5H0V24.7C0 11.1 11 0 24.7 0h463.4C501 0 512 11 512 24.7v94.8zM17 102.4h478V24.7c0-4.2-3.5-7.6-7.7-7.6H24.7a7.6 7.6 0 0 0-7.6 7.6v77.7z"/><path d="M484.7 512H27.3A27 27 0 0 1 0 484.7V102.4h512v382.3a27 27 0 0 1-27.3 27.3zM17 119.5v365.2c0 6 4.2 10.2 10.2 10.2h457.4c6 0 10.2-4.2 10.2-10.2V119.5H17.1z"/><path d="M85.3 349.9a42.3 42.3 0 0 1-42.6-42.7c0-23.9 18.7-42.7 42.6-42.7s42.7 18.8 42.7 42.7a42.3 42.3 0 0 1-42.7 42.7zm0-68.3c-14.5 0-25.6 11-25.6 25.6s11.1 25.6 25.6 25.6 25.6-11 25.6-25.6-11-25.6-25.6-25.6zM426.7 349.9a42.3 42.3 0 0 1-42.7-42.7c0-23.9 18.8-42.7 42.7-42.7s42.6 18.8 42.6 42.7a42.3 42.3 0 0 1-42.6 42.7zm0-68.3c-14.5 0-25.6 11-25.6 25.6s11 25.6 25.6 25.6 25.6-11 25.6-25.6-11.1-25.6-25.6-25.6zM307.2 264.5c-23.9 0-42.7-18.7-42.7-42.6s18.8-42.7 42.7-42.7c23.9 0 42.7 18.8 42.7 42.7s-18.8 42.6-42.7 42.6zm0-68.2c-14.5 0-25.6 11-25.6 25.6 0 14.5 11 25.6 25.6 25.6s25.6-11.1 25.6-25.6c0-14.5-11-25.6-25.6-25.6zM230.4 426.7a42.3 42.3 0 0 1-42.7-42.7c0-23.9 18.8-42.7 42.7-42.7s42.7 18.8 42.7 42.7a42.3 42.3 0 0 1-42.7 42.7zm0-68.3c-14.5 0-25.6 11-25.6 25.6 0 14.5 11 25.6 25.6 25.6 14.5 0 25.6-11 25.6-25.6 0-14.5-11-25.6-25.6-25.6z"/><path d="M196.3 375.5c-1.7 0-2.6 0-4.3-.9L115.2 332c-4.3-2.5-6-7.6-3.4-11.9 2.5-4.3 7.7-6 12-3.4l76.7 42.7c4.3 2.5 6 7.6 3.4 11.9a9 9 0 0 1-7.6 4.3zM247.5 358.4c-.9 0-2.6 0-3.4-.9-4.3-1.7-6-6.8-4.3-11l42.7-94c1.7-4.2 6.8-5.9 11-4.2 4.3 1.7 6 6.8 4.3 11.1l-42.7 93.9c-1.7 3.4-4.2 5.1-7.6 5.1zM392.5 290.1c-1.7 0-3.4-.8-5-1.7l-51.3-34.1c-4.3-2.6-5.1-7.7-2.5-12 2.5-4.2 7.6-5 11.9-2.5l51.2 34.1c4.3 2.6 5.1 7.7 2.6 12-1.7 2.5-4.3 4.2-6.9 4.2z"/>
	</symbol>
	<symbol id="feature-b" viewBox="0 0 512 512">
		<path style="fill:#ffdd09" d="M374.5 503.5h93.8c9.4 0 17.1-8.6 17.1-18.8V110.9H24.6v373.8c0 10.2 7.7 18.8 17 18.8h332.9z" transform="translate(1)"/><path style="fill:#fcc309" d="M255 503.5H22.9c-8.5 0-15.4-6.9-15.4-15.4V350H255v153.6zM488 503.5H255V349.9h247.5V488c0 8.5-6.9 15.4-14.5 15.4" transform="translate(1)"/><path style="fill:#ffdd09" d="M485.4 111H24.6V24.6c0-9.3 6.8-16.2 16.2-16.2H470c8.6 0 16.3 6.9 16.3 16.2V111h-.9z" transform="translate(1)"/><path style="fill:#fff" d="M24.6 484.7v-460c0-9.3 6.8-16.2 16.2-16.2h-17c-9.4 0-16.3 6.9-16.3 16.2v460a19 19 0 0 0 18.8 18.8h15.4c-9.4 0-17.1-8.6-17.1-18.8" transform="translate(1)"/><path style="fill:#fd9808" d="M486.3 8.5h-17.1c8.5 0 16.2 6.9 16.2 16.2v460c0 10.2-7.7 18.8-17 18.8h15.3a19 19 0 0 0 18.8-18.8v-460c0-9.3-6.9-16.2-16.2-16.2" transform="translate(1)"/><path style="fill:#54c9fd" d="M84.3 59.7c0 14.5-11 25.6-25.6 25.6s-25.6-11-25.6-25.6 11.1-25.6 25.6-25.6 25.6 11.1 25.6 25.6M161.1 59.7c0 14.5-11 25.6-25.6 25.6S110 74.3 110 59.7s11.1-25.6 25.6-25.6 25.6 11.1 25.6 25.6M238 59.7c0 14.5-11.2 25.6-25.7 25.6s-25.6-11-25.6-25.6 11.1-25.6 25.6-25.6S238 45.2 238 59.7" transform="translate(1)"/><path style="fill:#1cd759" d="M331.8 307.2H178.2l-25.6-85.3h204.8l-25.6 85.3z" transform="translate(1)"/><path style="fill:#54c9fd" d="M340.3 221.9H169.7v-68.3h59.7l25.6 25.6h85.3v42.7z" transform="translate(1)"/><path d="M59.7 93.9a34.2 34.2 0 1 1 34.1-34.1 34.2 34.2 0 0 1-34 34zm0-51.2c-9.4 0-17 7.6-17 17s7.6 17.1 17 17.1 17.1-7.7 17.1-17-7.7-17.1-17-17.1zM136.5 93.9a34.2 34.2 0 1 1 34.1-34.1 34.2 34.2 0 0 1-34 34zm0-51.2c-9.4 0-17 7.6-17 17s7.6 17.1 17 17.1 17.1-7.7 17.1-17-7.7-17.1-17-17.1zM213.3 93.9a34.2 34.2 0 1 1 34.1-34.1 34.2 34.2 0 0 1-34 34zm0-51.2c-9.4 0-17 7.6-17 17s7.6 17.1 17 17.1 17.1-7.7 17.1-17-7.7-17.1-17-17.1z"/><path d="M512 119.5H0V24.7C0 11.1 11 0 24.7 0h463.4C501 0 512 11 512 24.7v94.8zM17 102.4h478V24.7c0-4.2-3.5-7.6-7.7-7.6H24.7a7.6 7.6 0 0 0-7.6 7.6v77.7z"/><path d="M484.7 512H27.3A27 27 0 0 1 0 484.7V102.4h512v382.3a27 27 0 0 1-27.3 27.3zM17 119.5v365.2c0 6 4.2 10.2 10.2 10.2h457.4c6 0 10.2-4.2 10.2-10.2V119.5H17.1z"/><path d="M264.5 512H24A23.3 23.3 0 0 1 0 488.1V341.3h264.5V512zM17.1 358.4v129.7c0 4.3 2.5 6.8 6.8 6.8h223.6V358.4H17z"/><path d="M488.1 512H247.5V341.3H512v146.8a23.3 23.3 0 0 1-23.9 23.9zm-223.6-17h223.6c3.4 0 6.8-2.6 6.8-6.9V358.4H264.5v136.5zM162.1 401H51.2c-5.1 0-8.5-3.3-8.5-8.5s3.4-8.5 8.5-8.5h111c5 0 8.5 3.4 8.5 8.5s-3.4 8.6-8.6 8.6zM213.3 401h-17c-5.2 0-8.6-3.3-8.6-8.5s3.4-8.5 8.6-8.5h17c5.2 0 8.6 3.4 8.6 8.5s-3.4 8.6-8.6 8.6zM213.3 435.2h-42.6c-5.2 0-8.6-3.4-8.6-8.5s3.4-8.6 8.6-8.6h42.6c5.2 0 8.6 3.4 8.6 8.6s-3.4 8.5-8.6 8.5zM59.7 435.2h-8.5c-5.1 0-8.5-3.4-8.5-8.5s3.4-8.6 8.5-8.6h8.5c5.2 0 8.6 3.4 8.6 8.6s-3.4 8.5-8.6 8.5zM136.5 435.2h-34.1c-5.1 0-8.5-3.4-8.5-8.5s3.4-8.6 8.5-8.6h34.1c5.2 0 8.6 3.4 8.6 8.6s-3.4 8.5-8.6 8.5zM68.3 469.3H51.2c-5.1 0-8.5-3.4-8.5-8.5s3.4-8.5 8.5-8.5h17c5.2 0 8.6 3.4 8.6 8.5s-3.4 8.5-8.5 8.5zM119.5 469.3h-17.1c-5.1 0-8.5-3.4-8.5-8.5s3.4-8.5 8.5-8.5h17c5.2 0 8.6 3.4 8.6 8.5s-3.4 8.5-8.5 8.5zM213.3 469.3h-59.7c-5.1 0-8.5-3.4-8.5-8.5s3.4-8.5 8.5-8.5h59.7c5.2 0 8.6 3.4 8.6 8.5s-3.4 8.5-8.6 8.5z"/><path d="M460.8 401h-111c-5 0-8.5-3.3-8.5-8.5s3.4-8.5 8.6-8.5h110.9c5.1 0 8.5 3.4 8.5 8.5s-3.4 8.6-8.5 8.6zM315.7 401h-17c-5.2 0-8.6-3.3-8.6-8.5s3.4-8.5 8.6-8.5h17c5.2 0 8.6 3.4 8.6 8.5s-3.4 8.6-8.6 8.6zM341.3 435.2h-42.6c-5.2 0-8.6-3.4-8.6-8.5s3.4-8.6 8.6-8.6h42.6c5.2 0 8.6 3.4 8.6 8.6s-3.4 8.5-8.6 8.5zM460.8 435.2h-8.5c-5.2 0-8.6-3.4-8.6-8.5s3.4-8.6 8.6-8.6h8.5c5.1 0 8.5 3.4 8.5 8.6s-3.4 8.5-8.5 8.5zM409.6 435.2h-34.1c-5.2 0-8.6-3.4-8.6-8.5s3.4-8.6 8.6-8.6h34.1c5.1 0 8.5 3.4 8.5 8.6s-3.4 8.5-8.5 8.5zM460.8 469.3h-17c-5.2 0-8.6-3.4-8.6-8.5s3.4-8.5 8.5-8.5h17.1c5.1 0 8.5 3.4 8.5 8.5s-3.4 8.5-8.5 8.5zM409.6 469.3h-17c-5.2 0-8.6-3.4-8.6-8.5s3.4-8.5 8.5-8.5h17.1c5.1 0 8.5 3.4 8.5 8.5s-3.4 8.5-8.5 8.5zM358.4 469.3h-59.7c-5.2 0-8.6-3.4-8.6-8.5s3.4-8.5 8.6-8.5h59.7c5.1 0 8.5 3.4 8.5 8.5s-3.4 8.5-8.5 8.5zM332.8 315.7H179.2c-3.4 0-6.8-2.5-8.5-6L145 224.5c-.9-2.5 0-5 1.7-7.7a7.8 7.8 0 0 1 6.8-3.4h204.8c2.6 0 5.1.9 6.8 3.4 1.7 2.6 1.7 5.2 1.7 7.7l-25.6 85.4c-1.7 3.4-5 6-8.5 6zm-147.6-17H326l20.5-68.3H164.7l20.5 68.3z"/><path d="M341.3 230.4H170.7c-5.2 0-8.6-3.4-8.6-8.5v-68.3c0-5.1 3.4-8.5 8.6-8.5h59.7c2.6 0 4.3.8 6 2.5l23 23h82c5 0 8.5 3.5 8.5 8.6v42.7c0 5-3.4 8.5-8.6 8.5zm-162.1-17h153.6v-25.7H256c-2.6 0-4.3-.8-6-2.5l-23-23h-47.8v51.1zM290.1 273H222c-5.2 0-8.6-3.3-8.6-8.5 0-5 3.4-8.5 8.6-8.5H290c5.2 0 8.6 3.4 8.6 8.5 0 5.2-3.4 8.6-8.6 8.6zM128 153.6H85.3c-5 0-8.5-3.4-8.5-8.5 0-5.2 3.4-8.6 8.5-8.6H128c5.1 0 8.5 3.4 8.5 8.6 0 5-3.4 8.5-8.5 8.5zM51.2 153.6h-8.5c-5.2 0-8.6-3.4-8.6-8.5 0-5.2 3.4-8.6 8.6-8.6h8.5c5.1 0 8.5 3.4 8.5 8.6 0 5-3.4 8.5-8.5 8.5zM76.8 187.7H42.7c-5.2 0-8.6-3.4-8.6-8.5s3.4-8.5 8.6-8.5h34.1c5.1 0 8.5 3.4 8.5 8.5s-3.4 8.5-8.5 8.5zM128 187.7h-17c-5.2 0-8.6-3.4-8.6-8.5s3.4-8.5 8.5-8.5H128c5.1 0 8.5 3.4 8.5 8.5s-3.4 8.5-8.5 8.5zM469.3 290.1h-42.6c-5.2 0-8.6-3.4-8.6-8.5s3.4-8.5 8.6-8.5h42.6c5.2 0 8.6 3.4 8.6 8.5s-3.4 8.5-8.6 8.5zM392.5 290.1H384c-5.1 0-8.5-3.4-8.5-8.5s3.4-8.5 8.5-8.5h8.5c5.2 0 8.6 3.4 8.6 8.5s-3.4 8.5-8.6 8.5zM418.1 324.3H384c-5.1 0-8.5-3.4-8.5-8.6 0-5 3.4-8.5 8.5-8.5h34.1c5.2 0 8.6 3.4 8.6 8.5 0 5.2-3.4 8.6-8.6 8.6zM469.3 324.3h-17c-5.2 0-8.6-3.4-8.6-8.6 0-5 3.4-8.5 8.6-8.5h17c5.2 0 8.6 3.4 8.6 8.5 0 5.2-3.4 8.6-8.6 8.6zM426.7 204.8c-5.2 0-8.6-3.4-8.6-8.5V145c0-5.2 3.4-8.6 8.6-8.6s8.5 3.4 8.5 8.6v51.2c0 5-3.4 8.5-8.5 8.5z"/><path d="M452.3 179.2H401c-5.2 0-8.6-3.4-8.6-8.5 0-5.2 3.4-8.6 8.6-8.6h51.2c5 0 8.5 3.4 8.5 8.6 0 5-3.4 8.5-8.5 8.5zM59.7 324.3c-2.5 0-4.2-.9-6-2.6a8.2 8.2 0 0 1 0-12l51.3-51.1a8.2 8.2 0 0 1 12 0 8.2 8.2 0 0 1 0 12l-51.3 51.1a7.8 7.8 0 0 1-6 2.6z"/><path d="M111 324.3c-2.6 0-4.3-.9-6-2.6l-51.2-51.2a8.2 8.2 0 0 1 0-12 8.2 8.2 0 0 1 12 0l51.1 51.3a8.2 8.2 0 0 1 0 12 7.8 7.8 0 0 1-6 2.5zM349.9 230.4H162v-85.3h71.7l25.6 25.6H350v59.7zm-170.7-17h153.6v-25.7h-80.2L227 162.1h-47.8v51.2z"/>
	</symbol>
	<symbol id="feature-c" viewBox="0 0 512 512">
		<path style="fill:#ffdd09" d="M485.4 111H24.6V24.6c0-9.3 6.8-16.2 16.2-16.2H470c8.6 0 16.3 6.9 16.3 16.2V111h-.9z" transform="translate(1)"/><path style="fill:#ffdd09" d="M374.5 503.5h93.8c9.4 0 17.1-8.6 17.1-18.8V110.9H24.6v373.8c0 10.2 7.7 18.8 17 18.8h332.9z" transform="translate(1)"/><path style="fill:#fff" d="M24.6 484.7v-460c0-9.3 6.8-16.2 16.2-16.2h-17c-9.4 0-16.3 6.9-16.3 16.2v460a19 19 0 0 0 18.8 18.8h15.4c-9.4 0-17.1-8.6-17.1-18.8" transform="translate(1)"/><path style="fill:#fd9808" d="M486.3 8.5h-17.1c8.5 0 16.2 6.9 16.2 16.2v460c0 10.2-7.7 18.8-17 18.8h15.3a19 19 0 0 0 18.8-18.8v-460c0-9.3-6.9-16.2-16.2-16.2" transform="translate(1)"/><path style="fill:#54c9fd" d="M84.3 59.7c0 14.5-11 25.6-25.6 25.6s-25.6-11-25.6-25.6 11.1-25.6 25.6-25.6 25.6 11.1 25.6 25.6M161.1 59.7c0 14.5-11 25.6-25.6 25.6S110 74.3 110 59.7s11.1-25.6 25.6-25.6 25.6 11.1 25.6 25.6M238 59.7c0 14.5-11.2 25.6-25.7 25.6s-25.6-11-25.6-25.6 11.1-25.6 25.6-25.6S238 45.2 238 59.7M255 196.3c-99 0-179.2 80.2-179.2 179.2h145a34.2 34.2 0 0 1 68.3 0h145.1c0-99-80.2-179.2-179.2-179.2" transform="translate(1)"/><path style="fill:#54c9fd" d="M289.1 375.5c0 18.7-15.3 34.1-34.1 34.1a34.2 34.2 0 0 1 0-68.3 34.2 34.2 0 0 1 34.1 34.2" transform="translate(1)"/><path d="M59.7 93.9a34.2 34.2 0 1 1 34.1-34.1 34.2 34.2 0 0 1-34 34zm0-51.2c-9.4 0-17 7.6-17 17s7.6 17.1 17 17.1 17.1-7.7 17.1-17-7.7-17.1-17-17.1zM136.5 93.9a34.2 34.2 0 1 1 34.1-34.1 34.2 34.2 0 0 1-34 34zm0-51.2c-9.4 0-17 7.6-17 17s7.6 17.1 17 17.1 17.1-7.7 17.1-17-7.7-17.1-17-17.1zM213.3 93.9a34.2 34.2 0 1 1 34.1-34.1 34.2 34.2 0 0 1-34 34zm0-51.2c-9.4 0-17 7.6-17 17s7.6 17.1 17 17.1 17.1-7.7 17.1-17-7.7-17.1-17-17.1z"/><path d="M512 119.5H0V24.7C0 11.1 11 0 24.7 0h463.4C501 0 512 11 512 24.7v94.8zM17 102.4h478V24.7c0-4.2-3.5-7.6-7.7-7.6H24.7a7.6 7.6 0 0 0-7.6 7.6v77.7z"/><path d="M484.7 512H27.3A27 27 0 0 1 0 484.7V102.4h512v382.3a27 27 0 0 1-27.3 27.3zM17 119.5v365.2c0 6 4.2 10.2 10.2 10.2h457.4c6 0 10.2-4.2 10.2-10.2V119.5H17.1z"/><path d="M256 418.1a42.3 42.3 0 0 1-42.7-42.6c0-24 18.8-42.7 42.7-42.7s42.7 18.8 42.7 42.7A42.3 42.3 0 0 1 256 418zm0-68.2c-14.5 0-25.6 11-25.6 25.6 0 14.5 11 25.6 25.6 25.6 14.5 0 25.6-11.1 25.6-25.6 0-14.5-11-25.6-25.6-25.6z"/><path d="M443.7 384H281.6v-8.5c0-13.7-12-25.6-25.6-25.6s-25.6 12-25.6 25.6v8.5H68.3v-8.5c0-103.3 84.4-187.8 187.7-187.8s187.7 84.5 187.7 187.8v8.5zm-145.9-17h128.9c-4.3-90.5-79.4-162.2-170.7-162.2S89.6 276.5 85.3 366.9h128.9c4.3-19.6 21.3-34.1 41.8-34.1s37.5 14.5 41.8 34.1z"/><path d="M281.6 358.4c-1.7 0-4.3-.9-5.1-1.7-3.4-3.4-4.3-8.5-.9-12l42.7-51.2c3.4-3.4 8.5-4.2 12-.8 3.4 3.4 4.2 8.5.8 12l-42.7 51.1a9.7 9.7 0 0 1-6.8 2.6zM256 256c-5.1 0-8.5-3.4-8.5-8.5v-51.2c0-5.2 3.4-8.6 8.5-8.6s8.5 3.4 8.5 8.6v51.2c0 5-3.4 8.5-8.5 8.5zM196.3 264.5a9 9 0 0 1-7.7-4.2l-18.8-37.6c-1.7-4.2-.8-9.4 3.4-11 4.3-1.8 9.4-1 11.1 3.3l18.8 37.6c1.7 4.3.8 9.4-3.4 11-.9 1-1.7 1-3.4 1zM315.7 264.5c-1.7 0-2.5 0-3.4-.8-4.2-1.7-6-6.8-3.4-11.1l17-34.1c1.8-4.3 6.9-6 11.2-3.5 4.2 1.7 6 6.9 3.4 11.1l-17 34.2a9 9 0 0 1-7.8 4.2zM145 307.2c-1.6 0-3.3-.9-5-1.7l-35-23.9c-4.3-2.6-5.2-7.7-2.6-12 2.6-4.2 7.7-5 12-2.5l35 23.9c4.2 2.5 5 7.7 2.5 12-1.7 2.5-4.3 4.2-6.8 4.2zM367 307.2c-2.6 0-5.2-1.7-6.9-3.4-2.6-4.3-1.7-9.4 2.6-12l35-23.9c4.2-2.5 9.3-1.7 11.9 2.6 2.6 4.3 1.7 9.4-2.6 12l-35 23.8c-1.7 0-3.4.9-5 .9z"/>
	</symbol>
	<symbol id="feature-d" viewBox="0 0 512 512">
		<path style="fill:#ffdd09" d="M447 212.3H63c-6.8 0-12.8-6-12.8-12.8V20.3c0-6.8 6-12.8 12.8-12.8h383.1c7.7 0 13.7 6 13.7 12.8v178.4c0 7.7-6 13.6-12.8 13.6" transform="translate(1 1)"/><path style="fill:#fff" d="M50.2 199.5V20.3c0-6.8 6-12.8 12.8-12.8H37.4c-6.8 0-12.8 6-12.8 12.8v178.4c0 7.7 6 13.6 12.8 13.6H63c-6.8 0-12.8-6-12.8-12.8" transform="translate(1 1)"/><path style="fill:#fd9808" d="M472.6 7.5H447c6.8 0 12.8 6 12.8 12.8v178.4c0 7.7-6 12.8-12.8 12.8h25.6c7.7 0 12.8-6 12.8-12.8V20.3c0-6.8-6-12.8-12.8-12.8" transform="translate(1 1)"/><path style="fill:#ffdd09" d="M451.3 400c-5.2 0-8.6-3.3-8.6-8.5V366a68.5 68.5 0 0 0-68.2-68.2H152.6a68.5 68.5 0 0 0-68.3 68.2v25.6c0 5.2-3.4 8.6-8.5 8.6s-8.5-3.4-8.5-8.6V366c0-46.9 38.4-85.3 85.3-85.3h221.9c46.9 0 85.3 38.4 85.3 85.3v25.6c0 5.2-3.4 8.6-8.5 8.6z" transform="translate(1 1)"/><path style="fill:#ffdd09" d="M263.5 400c-5 0-8.5-3.3-8.5-8.5V221c0-5.2 3.4-8.6 8.5-8.6 5.2 0 8.6 3.4 8.6 8.6v170.6c0 5.2-3.4 8.6-8.6 8.6z" transform="translate(1 1)"/><path style="fill:#fff" d="M67.3 502.5C34 502.5 7.5 476 7.5 442.7S34 383 67.3 383s59.7 26.5 59.7 59.7-26.5 59.8-59.7 59.8" transform="translate(1 1)"/><path style="fill:#54c9fd" d="M80 502.5c-25.5 0-46.9-26.5-46.9-59.8s21.4-59.7 47-59.7 46.9 26.5 46.9 59.7-21.3 59.8-47 59.8" transform="translate(1 1)"/><path style="fill:#15a143" d="M255 383c33.3 0 59.7 26.5 59.7 59.7s-26.4 59.8-59.7 59.8-59.7-26.5-59.7-59.8S221.7 383 255 383" transform="translate(1 1)"/><path style="fill:#1cd759" d="M242.2 383c25.6 0 47 26.5 47 59.7s-21.4 59.8-47 59.8-47-26.5-47-59.8 21.4-59.7 47-59.7" transform="translate(1 1)"/><path style="fill:#fd9808" d="M442.7 383c33.3 0 59.8 26.5 59.8 59.7s-26.5 59.8-59.8 59.8S383 476 383 442.7s26.5-59.7 59.7-59.7" transform="translate(1 1)"/><path style="fill:#ffdd09" d="M430 383c25.5 0 46.9 26.5 46.9 59.7s-21.4 59.8-47 59.8S383 476 383 442.7s21.3-59.7 47-59.7" transform="translate(1 1)"/><path d="M68.3 512C30.7 512 0 481.3 0 443.7s30.7-68.2 68.3-68.2 68.2 30.7 68.2 68.2S105.8 512 68.3 512zm0-119.5c-28.2 0-51.2 23-51.2 51.2a51.3 51.3 0 1 0 51.2-51.2zM443.7 512c-37.5 0-68.2-30.7-68.2-68.3s30.7-68.2 68.2-68.2 68.3 30.7 68.3 68.2-30.7 68.3-68.3 68.3zm0-119.5c-28.1 0-51.2 23-51.2 51.2 0 28.2 23 51.2 51.2 51.2 28.2 0 51.2-23 51.2-51.2 0-28.1-23-51.2-51.2-51.2zM256 512c-37.5 0-68.3-30.7-68.3-68.3s30.8-68.2 68.3-68.2 68.3 30.7 68.3 68.2S293.5 512 256 512zm0-119.5c-28.2 0-51.2 23-51.2 51.2a51.3 51.3 0 1 0 51.2-51.2z"/><path d="M452.3 384h-17.1v-25.6a68.5 68.5 0 0 0-68.3-68.3H145.1a68.5 68.5 0 0 0-68.3 68.3V384h-17v-25.6c0-47 38.3-85.3 85.3-85.3h221.8c47 0 85.4 38.4 85.4 85.3V384z"/><path d="M247.5 213.3h17.1V384h-17.1z"/><path d="M473.6 221.9H38.4c-12 0-21.3-9.4-21.3-21.4V21.3C17 9.3 26.5 0 38.4 0h434.3C485.5 0 495 9.4 495 21.3v178.4c0 12.8-9.4 22.2-21.3 22.2zM38.4 17c-2.6 0-4.3 1.7-4.3 4.2v178.4c0 3.4 1.7 5.1 4.3 5.1h434.3c2.6 0 4.3-1.7 4.3-4.3V21.3c.9-2.5-.8-4.2-3.4-4.2H38.4z"/><path d="M179.2 68.3h-111c-5 0-8.5-3.4-8.5-8.6s3.4-8.5 8.6-8.5h110.9c5.1 0 8.5 3.4 8.5 8.5s-3.4 8.6-8.5 8.6zM256 68.3h-42.7c-5 0-8.5-3.4-8.5-8.6s3.4-8.5 8.5-8.5H256c5.1 0 8.5 3.4 8.5 8.5s-3.4 8.6-8.5 8.6zM230.4 102.4H110.9c-5 0-8.5-3.4-8.5-8.5s3.4-8.6 8.5-8.6h119.5c5.1 0 8.5 3.4 8.5 8.6s-3.4 8.5-8.5 8.5zM76.8 102.4h-8.5c-5.2 0-8.6-3.4-8.6-8.5s3.4-8.6 8.6-8.6h8.5c5.1 0 8.5 3.4 8.5 8.6s-3.4 8.5-8.5 8.5zM290.1 102.4h-25.6c-5 0-8.5-3.4-8.5-8.5s3.4-8.6 8.5-8.6h25.6c5.2 0 8.6 3.4 8.6 8.6s-3.4 8.5-8.6 8.5zM145 136.5H68.4c-5.2 0-8.6-3.4-8.6-8.5s3.4-8.5 8.6-8.5H145c5 0 8.5 3.4 8.5 8.5s-3.4 8.5-8.5 8.5zM196.3 136.5h-17.1c-5.1 0-8.5-3.4-8.5-8.5s3.4-8.5 8.5-8.5h17c5.2 0 8.6 3.4 8.6 8.5s-3.4 8.5-8.5 8.5zM247.5 136.5h-17.1c-5.1 0-8.5-3.4-8.5-8.5s3.4-8.5 8.5-8.5h17c5.2 0 8.6 3.4 8.6 8.5s-3.4 8.5-8.5 8.5zM392.5 68.3H290.1c-5 0-8.5-3.4-8.5-8.6s3.4-8.5 8.5-8.5h102.4c5.2 0 8.6 3.4 8.6 8.5s-3.4 8.6-8.6 8.6zM443.7 68.3h-17c-5.2 0-8.6-3.4-8.6-8.6s3.4-8.5 8.6-8.5h17c5.2 0 8.6 3.4 8.6 8.5s-3.4 8.6-8.6 8.6zM443.7 102.4H324.3c-5.2 0-8.6-3.4-8.6-8.5s3.4-8.6 8.6-8.6h119.4c5.2 0 8.6 3.4 8.6 8.6s-3.4 8.5-8.6 8.5zM230.4 170.7H110.9c-5 0-8.5-3.4-8.5-8.6 0-5 3.4-8.5 8.5-8.5h119.5c5.1 0 8.5 3.4 8.5 8.5 0 5.2-3.4 8.6-8.5 8.6zM76.8 170.7h-8.5c-5.2 0-8.6-3.4-8.6-8.6 0-5 3.4-8.5 8.6-8.5h8.5c5.1 0 8.5 3.4 8.5 8.5 0 5.2-3.4 8.6-8.5 8.6zM290.1 170.7h-25.6c-5 0-8.5-3.4-8.5-8.6 0-5 3.4-8.5 8.5-8.5h25.6c5.2 0 8.6 3.4 8.6 8.5 0 5.2-3.4 8.6-8.6 8.6zM443.7 170.7H324.3c-5.2 0-8.6-3.4-8.6-8.6 0-5 3.4-8.5 8.6-8.5h119.4c5.2 0 8.6 3.4 8.6 8.5 0 5.2-3.4 8.6-8.6 8.6zM349.9 136.5H290c-5 0-8.5-3.4-8.5-8.5s3.4-8.5 8.5-8.5H350c5 0 8.5 3.4 8.5 8.5s-3.4 8.5-8.5 8.5zM401 136.5h-17c-5.1 0-8.5-3.4-8.5-8.5s3.4-8.5 8.5-8.5h17c5.2 0 8.6 3.4 8.6 8.5s-3.4 8.5-8.5 8.5zM443.7 136.5h-8.5c-5.1 0-8.5-3.4-8.5-8.5s3.4-8.5 8.5-8.5h8.5c5.2 0 8.6 3.4 8.6 8.5s-3.4 8.5-8.6 8.5z"/>
	</symbol>
	<symbol id="feature-e" viewBox="0 0 512 512">
		<path style="fill:#33a9f8" d="M272 7.5A249.2 249.2 0 0 1 502.6 238H272V7.5z" transform="translate(1 1)"/><path style="fill:#54c9fd" d="M272 7.5C395 16.1 459.9 115.1 468.4 238H272.1V7.5z" transform="translate(1 1)"/><path style="fill:#fff" d="M238 7.5A249.2 249.2 0 0 0 7.4 238H238V7.5z" transform="translate(1 1)"/><path style="fill:#ffdd09" d="M238 7.5C115 16.1 50.1 115.1 41.6 238h196.2V7.5z" transform="translate(1 1)"/><path style="fill:#fff" d="M238 502.5A249.2 249.2 0 0 1 7.4 272H238v230.4z" transform="translate(1 1)"/><path style="fill:#db4d6c" d="M238 502.5C115 493.9 50.1 394.9 41.6 272h196.2v230.4z" transform="translate(1 1)"/><path style="fill:#15a143" d="M272 502.5A249.2 249.2 0 0 0 502.6 272H272v230.4z" transform="translate(1 1)"/><path style="fill:#1cd759" d="M272 502.5c123-8.6 187.8-107.6 196.3-230.4H272.1v230.4z" transform="translate(1 1)"/><path d="M239 512A256.8 256.8 0 0 1 0 274c0-2.6.9-4.3 2.6-7a7.7 7.7 0 0 1 6-2.5h230.3c5.2 0 8.6 3.4 8.6 8.6v230.4c0 2.5-.9 4.2-2.6 6a7.7 7.7 0 0 1-6 2.5zM18 281.6a239.6 239.6 0 0 0 212.4 212.5V281.6H17.9zM239 247.5H8.4c-2.5 0-4.2-.9-6-2.6a9.7 9.7 0 0 1-2.5-6.8A256.7 256.7 0 0 1 238 0c2.6 0 4.3.9 7 2.6a7.7 7.7 0 0 1 2.5 6v230.3c0 5.2-3.4 8.6-8.6 8.6zM18 230.4h212.4V17.9A239.6 239.6 0 0 0 17.9 230.4zM273 512c-2.5 0-4.2-.9-6-2.6s-2.5-3.4-2.5-6V273.2c0-5.2 3.4-8.6 8.6-8.6h230.4c2.5 0 4.2.9 6 2.6s2.5 4.3 2.5 6.8A256.8 256.8 0 0 1 273 512zm8.6-230.4v212.5a239.6 239.6 0 0 0 212.5-212.5H281.6zM503.5 247.5H273c-5.2 0-8.6-3.4-8.6-8.6V8.5c0-2.5.9-4.2 2.6-6s4.3-2.5 6.8-2.5A256.7 256.7 0 0 1 512 238c0 2.6-.9 4.3-2.6 7a7.7 7.7 0 0 1-6 2.5zm-221.9-17.1h212.5A239.6 239.6 0 0 0 281.6 17.9v212.5z"/>
	</symbol>
	<symbol id="feature-f" viewBox="0 0 512 512">
		<path style="fill:#ffdd09" d="m425.7 314.7-60.6-87a34.6 34.6 0 0 1-33.3 27.3 33.3 33.3 0 0 1-29.9-18.8l-64 95.6-72.5-60.6c-6 10.3-17 18-29.9 18-12 0-22.2-6-28.1-14.6l-82.8 82.8v128h477.9V152.6l-76.8 162.1z" transform="translate(1 1)"/><path style="fill:#fd9808" d="M502.5 485.4h-25.6v-273l25.6-59.8v332.8z" transform="translate(1 1)"/><path style="fill:#1cd759" d="M169.7 255a34.2 34.2 0 1 1-34.1-34.1 34.2 34.2 0 0 1 34 34.1" transform="translate(1 1)"/><path style="fill:#54c9fd" d="M366 220.9a34.2 34.2 0 1 1-34.1-34.1 34.2 34.2 0 0 1 34 34" transform="translate(1 1)"/><path style="fill:#ffdd09" d="M67.3 511c-5.2 0-8.6-3.4-8.6-8.5v-17.1c0-5.1 3.4-8.5 8.6-8.5s8.5 3.4 8.5 8.5v17c0 5.2-3.4 8.6-8.5 8.6zM110 511c-5.2 0-8.6-3.4-8.6-8.5v-17.1c0-5.1 3.4-8.5 8.5-8.5s8.6 3.4 8.6 8.5v17c0 5.2-3.4 8.6-8.6 8.6zM152.6 511c-5.1 0-8.5-3.4-8.5-8.5v-17.1c0-5.1 3.4-8.5 8.5-8.5s8.5 3.4 8.5 8.5v17c0 5.2-3.4 8.6-8.5 8.6zM195.3 511c-5.2 0-8.6-3.4-8.6-8.5v-17.1c0-5.1 3.4-8.5 8.6-8.5 5 0 8.5 3.4 8.5 8.5v17c0 5.2-3.4 8.6-8.5 8.6zM238 511c-5.2 0-8.6-3.4-8.6-8.5v-17.1c0-5.1 3.4-8.5 8.5-8.5 5.2 0 8.6 3.4 8.6 8.5v17c0 5.2-3.4 8.6-8.6 8.6zM280.6 511c-5.1 0-8.5-3.4-8.5-8.5v-17.1c0-5.1 3.4-8.5 8.5-8.5s8.5 3.4 8.5 8.5v17c0 5.2-3.4 8.6-8.5 8.6zM323.3 511c-5.2 0-8.6-3.4-8.6-8.5v-17.1c0-5.1 3.4-8.5 8.6-8.5 5 0 8.5 3.4 8.5 8.5v17c0 5.2-3.4 8.6-8.5 8.6zM366 511c-5.2 0-8.6-3.4-8.6-8.5v-17.1c0-5.1 3.4-8.5 8.5-8.5s8.6 3.4 8.6 8.5v17c0 5.2-3.4 8.6-8.6 8.6zM408.6 511c-5.1 0-8.5-3.4-8.5-8.5v-17.1c0-5.1 3.4-8.5 8.5-8.5s8.5 3.4 8.5 8.5v17c0 5.2-3.4 8.6-8.5 8.6zM451.3 511c-5.2 0-8.6-3.4-8.6-8.5v-17.1c0-5.1 3.4-8.5 8.6-8.5s8.5 3.4 8.5 8.5v17c0 5.2-3.4 8.6-8.5 8.6zM494 511c-5.2 0-8.6-3.4-8.6-8.5v-17.1c0-5.1 3.4-8.5 8.5-8.5 5.2 0 8.6 3.4 8.6 8.5v17c0 5.2-3.4 8.6-8.6 8.6zM178.2 41.7h-42.7c-5 0-8.5-3.4-8.5-8.6s3.4-8.5 8.5-8.5h42.7c5.1 0 8.5 3.4 8.5 8.5s-3.4 8.6-8.5 8.6zM101.4 41.7h-8.5c-5.2 0-8.6-3.4-8.6-8.6s3.4-8.5 8.6-8.5h8.5c5.1 0 8.5 3.4 8.5 8.5s-3.4 8.6-8.5 8.6zM127 75.8H92.9c-5.2 0-8.6-3.4-8.6-8.5s3.4-8.6 8.6-8.6H127c5.1 0 8.5 3.4 8.5 8.6s-3.4 8.5-8.5 8.5zM178.2 75.8h-17c-5.2 0-8.6-3.4-8.6-8.5s3.4-8.6 8.5-8.6h17.1c5.1 0 8.5 3.4 8.5 8.6s-3.4 8.5-8.5 8.5zM451.3 24.6h-93.9c-5.1 0-8.5-3.4-8.5-8.5s3.4-8.6 8.5-8.6h93.9c5 0 8.5 3.4 8.5 8.6s-3.4 8.5-8.5 8.5zM502.5 58.7H400c-5.2 0-8.6-3.4-8.6-8.5s3.4-8.5 8.6-8.5h102.4c5 0 8.5 3.4 8.5 8.5s-3.4 8.5-8.5 8.5zM366 58.7h-8.6c-5.1 0-8.5-3.4-8.5-8.5s3.4-8.5 8.5-8.5h8.5c5.2 0 8.6 3.4 8.6 8.5s-3.4 8.5-8.6 8.5zM502.5 24.6h-17.1c-5.1 0-8.5-3.4-8.5-8.5s3.4-8.6 8.5-8.6h17c5.2 0 8.6 3.4 8.6 8.6s-3.4 8.5-8.5 8.5zM417.1 92.9h-59.7c-5.1 0-8.5-3.4-8.5-8.6s3.4-8.5 8.5-8.5h59.7c5.2 0 8.6 3.4 8.6 8.5S422.3 93 417 93zM502.5 92.9h-51.2c-5.2 0-8.6-3.4-8.6-8.6s3.4-8.5 8.6-8.5h51.2c5 0 8.5 3.4 8.5 8.5s-3.4 8.6-8.5 8.6zM33.1 485.4c-5 0-8.5-3.4-8.5-8.5V7.5c0-5 3.4-8.5 8.5-8.5s8.6 3.4 8.6 8.5V477c0 5-3.4 8.5-8.6 8.5z" transform="translate(1 1)"/><path style="fill:#ffdd09" d="M50.2 33.1H16.1c-5.2 0-8.6-3.4-8.6-8.5s3.4-8.5 8.6-8.5h34.1c5.1 0 8.5 3.4 8.5 8.5s-3.4 8.5-8.5 8.5zM50.2 75.8H16.1c-5.2 0-8.6-3.4-8.6-8.5s3.4-8.6 8.6-8.6h34.1c5.1 0 8.5 3.4 8.5 8.6s-3.4 8.5-8.5 8.5zM50.2 118.5H16.1c-5.2 0-8.6-3.4-8.6-8.6s3.4-8.5 8.6-8.5h34.1c5.1 0 8.5 3.4 8.5 8.5s-3.4 8.6-8.5 8.6zM50.2 161.1H16.1c-5.2 0-8.6-3.4-8.6-8.5s3.4-8.5 8.6-8.5h34.1c5.1 0 8.5 3.4 8.5 8.5s-3.4 8.5-8.5 8.5zM50.2 203.8H16.1c-5.2 0-8.6-3.4-8.6-8.5 0-5.2 3.4-8.6 8.6-8.6h34.1c5.1 0 8.5 3.4 8.5 8.6 0 5-3.4 8.5-8.5 8.5zM50.2 246.5H16.1c-5.2 0-8.6-3.4-8.6-8.6 0-5 3.4-8.5 8.6-8.5h34.1c5.1 0 8.5 3.4 8.5 8.5 0 5.2-3.4 8.6-8.5 8.6zM50.2 289.1H16.1c-5.2 0-8.6-3.4-8.6-8.5s3.4-8.5 8.6-8.5h34.1c5.1 0 8.5 3.4 8.5 8.5s-3.4 8.5-8.5 8.5zM33.1 331.8h-17c-5.2 0-8.6-3.4-8.6-8.5 0-5.2 3.4-8.6 8.6-8.6h17c5.2 0 8.6 3.4 8.6 8.6 0 5-3.4 8.5-8.6 8.5zM33.1 374.5h-17c-5.2 0-8.6-3.4-8.6-8.6s3.4-8.5 8.6-8.5h17c5.2 0 8.6 3.4 8.6 8.5s-3.4 8.6-8.6 8.6zM33.1 417.1h-17c-5.2 0-8.6-3.4-8.6-8.5s3.4-8.5 8.6-8.5h17c5.2 0 8.6 3.4 8.6 8.5s-3.4 8.5-8.6 8.5zM33.1 459.8h-17c-5.2 0-8.6-3.4-8.6-8.5s3.4-8.6 8.6-8.6h17c5.2 0 8.6 3.4 8.6 8.6s-3.4 8.5-8.6 8.5z" transform="translate(1 1)"/><path d="M136.5 298.7c-23.9 0-42.6-18.8-42.6-42.7s18.7-42.7 42.6-42.7 42.7 18.8 42.7 42.7-18.8 42.7-42.7 42.7zm0-68.3c-14.5 0-25.6 11-25.6 25.6 0 14.5 11.1 25.6 25.6 25.6s25.6-11 25.6-25.6c0-14.5-11-25.6-25.6-25.6zM332.8 264.5c-23.9 0-42.7-18.7-42.7-42.6s18.8-42.7 42.7-42.7 42.7 18.8 42.7 42.7-18.8 42.6-42.7 42.6zm0-68.2c-14.5 0-25.6 11-25.6 25.6 0 14.5 11 25.6 25.6 25.6s25.6-11.1 25.6-25.6c0-14.5-11-25.6-25.6-25.6zM25.6 495c-5.1 0-8.5-3.5-8.5-8.6V8.5c0-5 3.4-8.5 8.5-8.5s8.5 3.4 8.5 8.5v477.9c0 5.1-3.4 8.5-8.5 8.5z"/><path d="M42.7 42.7H8.5c-5 0-8.5-3.4-8.5-8.6s3.4-8.5 8.5-8.5h34.2c5 0 8.5 3.4 8.5 8.5s-3.4 8.6-8.5 8.6zM42.7 85.3H8.5c-5 0-8.5-3.4-8.5-8.5s3.4-8.5 8.5-8.5h34.2c5 0 8.5 3.4 8.5 8.5s-3.4 8.5-8.5 8.5zM42.7 128H8.5c-5 0-8.5-3.4-8.5-8.5s3.4-8.6 8.5-8.6h34.2c5 0 8.5 3.4 8.5 8.6s-3.4 8.5-8.5 8.5zM42.7 170.7H8.5c-5 0-8.5-3.4-8.5-8.6 0-5 3.4-8.5 8.5-8.5h34.2c5 0 8.5 3.4 8.5 8.5 0 5.2-3.4 8.6-8.5 8.6zM42.7 213.3H8.5c-5 0-8.5-3.4-8.5-8.5s3.4-8.5 8.5-8.5h34.2c5 0 8.5 3.4 8.5 8.5s-3.4 8.5-8.5 8.5zM42.7 256H8.5c-5 0-8.5-3.4-8.5-8.5 0-5.2 3.4-8.6 8.5-8.6h34.2c5 0 8.5 3.4 8.5 8.6 0 5-3.4 8.5-8.5 8.5zM42.7 298.7H8.5c-5 0-8.5-3.4-8.5-8.6 0-5 3.4-8.5 8.5-8.5h34.2c5 0 8.5 3.4 8.5 8.5 0 5.2-3.4 8.6-8.5 8.6zM25.6 341.3h-17c-5.2 0-8.6-3.4-8.6-8.5s3.4-8.5 8.5-8.5h17.1c5.1 0 8.5 3.4 8.5 8.5s-3.4 8.5-8.5 8.5zM25.6 384h-17c-5.2 0-8.6-3.4-8.6-8.5 0-5.2 3.4-8.6 8.5-8.6h17.1c5.1 0 8.5 3.4 8.5 8.6 0 5-3.4 8.5-8.5 8.5zM25.6 426.7h-17c-5.2 0-8.6-3.4-8.6-8.6s3.4-8.5 8.5-8.5h17.1c5.1 0 8.5 3.4 8.5 8.5s-3.4 8.6-8.5 8.6zM25.6 469.3h-17c-5.2 0-8.6-3.4-8.6-8.5s3.4-8.5 8.5-8.5h17.1c5.1 0 8.5 3.4 8.5 8.5s-3.4 8.5-8.5 8.5zM59.7 512c-5 0-8.5-3.4-8.5-8.5v-17.1c0-5.1 3.4-8.5 8.5-8.5s8.6 3.4 8.6 8.5v17c0 5.2-3.4 8.6-8.6 8.6zM102.4 512c-5.1 0-8.5-3.4-8.5-8.5v-17.1c0-5.1 3.4-8.5 8.5-8.5s8.5 3.4 8.5 8.5v17c0 5.2-3.4 8.6-8.5 8.6zM145 512c-5 0-8.5-3.4-8.5-8.5v-17.1c0-5.1 3.4-8.5 8.6-8.5 5 0 8.5 3.4 8.5 8.5v17c0 5.2-3.4 8.6-8.5 8.6zM187.7 512c-5 0-8.5-3.4-8.5-8.5v-17.1c0-5.1 3.4-8.5 8.5-8.5 5.2 0 8.6 3.4 8.6 8.5v17c0 5.2-3.4 8.6-8.6 8.6zM230.4 512c-5.1 0-8.5-3.4-8.5-8.5v-17.1c0-5.1 3.4-8.5 8.5-8.5s8.5 3.4 8.5 8.5v17c0 5.2-3.4 8.6-8.5 8.6zM273 512c-5 0-8.5-3.4-8.5-8.5v-17.1c0-5.1 3.4-8.5 8.6-8.5s8.5 3.4 8.5 8.5v17c0 5.2-3.4 8.6-8.5 8.6zM315.7 512c-5 0-8.5-3.4-8.5-8.5v-17.1c0-5.1 3.4-8.5 8.5-8.5 5.2 0 8.6 3.4 8.6 8.5v17c0 5.2-3.4 8.6-8.6 8.6zM358.4 512c-5.1 0-8.5-3.4-8.5-8.5v-17.1c0-5.1 3.4-8.5 8.5-8.5s8.5 3.4 8.5 8.5v17c0 5.2-3.4 8.6-8.5 8.6zM401 512c-5 0-8.5-3.4-8.5-8.5v-17.1c0-5.1 3.4-8.5 8.6-8.5s8.5 3.4 8.5 8.5v17c0 5.2-3.4 8.6-8.5 8.6zM443.7 512c-5 0-8.5-3.4-8.5-8.5v-17.1c0-5.1 3.4-8.5 8.5-8.5 5.2 0 8.6 3.4 8.6 8.5v17c0 5.2-3.4 8.6-8.6 8.6zM486.4 512c-5.1 0-8.5-3.4-8.5-8.5v-17.1c0-5.1 3.4-8.5 8.5-8.5s8.5 3.4 8.5 8.5v17c0 5.2-3.4 8.6-8.5 8.6zM179.2 34.1h-42.7c-5 0-8.5-3.4-8.5-8.5s3.4-8.5 8.5-8.5h42.7c5.1 0 8.5 3.4 8.5 8.5s-3.4 8.5-8.5 8.5zM102.4 34.1h-8.5c-5.2 0-8.6-3.4-8.6-8.5s3.4-8.5 8.6-8.5h8.5c5.1 0 8.5 3.4 8.5 8.5s-3.4 8.5-8.5 8.5zM128 68.3H93.9c-5.2 0-8.6-3.4-8.6-8.6s3.4-8.5 8.6-8.5H128c5.1 0 8.5 3.4 8.5 8.5s-3.4 8.6-8.5 8.6zM179.2 68.3h-17c-5.2 0-8.6-3.4-8.6-8.6s3.4-8.5 8.5-8.5h17.1c5.1 0 8.5 3.4 8.5 8.5s-3.4 8.6-8.5 8.6zM452.3 17h-93.9c-5.1 0-8.5-3.3-8.5-8.5s3.4-8.5 8.5-8.5h93.9c5 0 8.5 3.4 8.5 8.5s-3.4 8.6-8.5 8.6zM503.5 51.2H401c-5.2 0-8.6-3.4-8.6-8.5s3.4-8.6 8.6-8.6h102.4c5 0 8.5 3.4 8.5 8.6s-3.4 8.5-8.5 8.5zM367 51.2h-8.6c-5.1 0-8.5-3.4-8.5-8.5s3.4-8.6 8.5-8.6h8.5c5.2 0 8.6 3.4 8.6 8.6s-3.4 8.5-8.6 8.5zM503.5 17h-17.1c-5.1 0-8.5-3.3-8.5-8.5s3.4-8.5 8.5-8.5h17c5.2 0 8.6 3.4 8.6 8.5s-3.4 8.6-8.5 8.6zM418.1 85.3h-59.7c-5.1 0-8.5-3.4-8.5-8.5s3.4-8.5 8.5-8.5h59.7c5.2 0 8.6 3.4 8.6 8.5s-3.4 8.5-8.6 8.5zM503.5 85.3h-51.2c-5.2 0-8.6-3.4-8.6-8.5s3.4-8.5 8.6-8.5h51.2c5 0 8.5 3.4 8.5 8.5s-3.4 8.5-8.5 8.5z"/><path d="M503.5 495H25.6c-5.1 0-8.5-3.5-8.5-8.6v-128c0-2.6.8-4.3 2.5-6l82.8-82.7a9.7 9.7 0 0 1 6.8-2.6c2.6 0 5.1 1.7 6 3.4 5.1 6.8 12.8 11.1 21.3 11.1 9.4 0 18-5.1 22.2-13.7.9-2.5 3.4-3.4 6-4.2 2.6-.9 5.1 0 6.8 1.7l65.7 54.6 58-87.9c1.8-2.6 4.3-4.3 7.7-3.4 3.4 0 6 1.7 6.9 4.3a25 25 0 0 0 23 13.6c12 0 23-8.5 24.7-20.5.9-3.4 3.5-6 6.9-6.8 3.4-.8 6.8.9 8.5 3.4l52 75.1 70.9-148.5c1.7-3.4 6-6 9.4-4.2 4.2.8 6.8 4.2 6.8 8.5v332.8c0 5.1-3.4 8.5-8.5 8.5zM34 477.8H495V191l-60.6 128a13.3 13.3 0 0 1-6.8 5.2c-3.4 0-6-.9-7.7-3.4l-52-74.3a44.4 44.4 0 0 1-35 18c-11 0-22.2-4.3-29.9-12l-57.1 85.3c-1.7 1.7-3.5 3.4-6 3.4-2.6 0-5.1 0-6.8-1.7L167.3 285a43.2 43.2 0 0 1-31.6 13.7 43.3 43.3 0 0 1-28.2-11.1l-73.4 74.2v116z"/>
	</symbol>
	<symbol id="feature-g" viewBox="0 0 512 512">
		<path style="fill:#33a9f8" d="M360 219.2c0-47-38.4-86.2-85.4-86.2H273c38.4.8 69.1 40 70 86.2 23 5 38.4 30.7 38.4 59.7 0 32.4-19.6 58.9-47 58.9h16.3c32.4 0 56.3-25.6 56.3-59-.9-28-18.8-54.5-47-59.6" transform="translate(1 1)"/><path style="fill:#ffdd09" d="M152.6 195.3c-1.7 0-3.4 0-4.3-1.7l-17.9-11.1c-4.3-2.6-5.1-7.7-2.5-12 2.5-4.2 7.6-5.1 11.9-2.5l18 11c4.2 2.6 5 7.7 2.5 12a10.2 10.2 0 0 1-7.7 4.3zm-47-29c-1.6 0-3.3 0-4.2-1.8L80.1 151c-4.3-2.6-5.2-7.7-2.6-12 2.6-4.2 7.7-5 12-2.5l21.3 13.6c4.3 2.6 5.1 7.7 2.5 12a9 9 0 0 1-7.6 4.3zM434.2 383c-2.6 0-4.3-.9-6-2.6l-17.9-17.9a8.2 8.2 0 0 1 0-12 8.2 8.2 0 0 1 12 0l17.9 18a8.2 8.2 0 0 1 0 12 7.7 7.7 0 0 1-6 2.5zm-42.7-42.7c-1.7 0-4.2-.8-6-2.5a8.2 8.2 0 0 1 0-12 8.2 8.2 0 0 1 12 0 8.2 8.2 0 0 1 0 12 7.7 7.7 0 0 1-6 2.5zM67.3 374.5c-2.6 0-5.2-1.7-6.9-3.4-2.5-4.3-1.7-9.4 2.6-12l21.3-14.5c4.3-2.6 9.4-1.7 12 2.6 2.5 4.2 1.7 9.3-2.6 12l-21.3 14.4c-1.7 0-3.4.9-5.1.9zm49.5-33.3c-2.6 0-5.2-1.7-6.9-3.4-2.5-4.3-1.7-9.4 2.6-12l1.7-.8c4.3-2.6 9.4-1.7 12 2.5 2.5 4.3 1.7 9.4-2.6 12l-1.7.8c-1.7.9-3.4.9-5.1.9z" transform="translate(1 1)"/><path style="fill:#54c9fd" d="M344.6 221.7c0-47-32.4-86.2-70.8-86.2-24.8 0-48.7 16.2-61.5 39.3-6-4.3-13.6-5.1-21.3-5.1-19.6 0-35 17.9-35 41v5c-18 10.3-29 32.5-29 58 0 35 21.3 65.8 51.2 65.8H336.1c27.3 0 46.9-25.6 46.9-58.9 0-27.3-15.4-53.8-38.4-58.9" transform="translate(1 1)"/><path style="fill:#54c9fd" d="M212.3 174.8A81.2 81.2 0 0 1 255 138a95.1 95.1 0 0 0-49.5 33.3c2.6.8 4.3 2.5 6.8 3.4" transform="translate(1 1)"/><path style="fill:#fff" d="M127 274.6c0-25.6 11-47.8 29-58v-5.1c0-22.2 12.8-38.4 30.7-41-2.5 0-6-.8-8.5-.8-23.9 0-41.8 17.9-41.8 41v5a63.3 63.3 0 0 0-35 58c0 35 26.5 65.8 61.4 65.8h15.4c-29.9.8-51.2-29.9-51.2-64.9" transform="translate(1 1)"/><path style="fill:#ffdd09" d="M50.2 340.3c-5.1 0-8.5-3.4-8.5-8.5v-34.1c0-5.2 3.4-8.6 8.5-8.6s8.5 3.4 8.5 8.6v34.1c0 5.1-3.4 8.5-8.5 8.5zm0-59.7c-5.1 0-8.5-3.4-8.5-8.5v-51.2c0-5.2 3.4-8.6 8.5-8.6s8.5 3.4 8.5 8.6V272c0 5-3.4 8.5-8.5 8.5zm0-85.3c-5.1 0-8.5-3.4-8.5-8.6v-25.6c0-5 3.4-8.5 8.5-8.5s8.5 3.4 8.5 8.5v25.6c0 5.2-3.4 8.6-8.5 8.6zM229.4 485.4c-.9 0-2.6 0-3.4-.9l-21.3-10.2c-4.3-1.7-6-6.8-4.3-11 1.7-4.4 6.8-6 11-4.4l21.4 10.3c4.3 1.7 6 6.8 4.3 11-1.7 3.5-4.3 5.2-7.7 5.2zM185 464.1c-.8 0-2.5 0-3.4-.9l-46-22.2c-4.3-1.7-6-6.8-4.3-11s6.8-6 11-4.3l46.1 22.2c4.3 1.7 6 6.8 4.3 11a9.1 9.1 0 0 1-7.7 5.2zm-77.6-35.9c-.9 0-2.6 0-3.4-.8l-23-11.1c-4.3-1.7-6-6.8-4.3-11.1s6.8-6 11-4.3l23 11.1c4.4 1.7 6 6.8 4.4 11.1-1.8 3.4-4.3 5.1-7.7 5.1zM476.9 331.8c-5.2 0-8.6-3.4-8.6-8.5V289c0-5 3.4-8.5 8.6-8.5 5 0 8.5 3.4 8.5 8.5v34.2c0 5-3.4 8.5-8.5 8.5zm0-59.7c-5.2 0-8.6-3.4-8.6-8.6v-51.2c0-5 3.4-8.5 8.6-8.5 5 0 8.5 3.4 8.5 8.5v51.2c0 5.2-3.4 8.6-8.5 8.6zm0-85.4c-5.2 0-8.6-3.4-8.6-8.5v-25.6c0-5.1 3.4-8.5 8.6-8.5 5 0 8.5 3.4 8.5 8.5v25.6c0 5.1-3.4 8.5-8.5 8.5zM297.7 485.4c-3.4 0-6-1.7-7.7-5.1-1.7-4.3 0-9.4 4.3-11.1l21.3-10.3c4.3-1.7 9.4 0 11 4.3s0 9.4-4.2 11.1l-21.3 10.2c-.9.9-2.6.9-3.4.9zm44.3-21.3c-3.4 0-6-1.7-7.6-5.2-1.7-4.2 0-9.3 4.2-11l46.1-22.2c4.3-1.7 9.4 0 11.1 4.2s0 9.4-4.3 11.1l-46 22.2c-.9.9-1.8.9-3.5.9zm77.7-35.9c-3.4 0-6-1.7-7.7-5-1.7-4.4 0-9.5 4.3-11.2l23-11c4.3-1.8 9.4 0 11.1 4.2 1.7 4.3 0 9.4-4.3 11l-23 11.2c-.8 0-2.6.8-3.4.8zM442.7 110c-.8 0-2.5 0-3.4-1l-23.9-9.3c-4.2-1.7-6.8-6.8-4.2-11.1 1.7-4.3 6.8-6.8 11-4.3l24 9.4c4.2 1.7 6.8 6.8 4.2 11.1-.8 3.4-4.3 5.1-7.7 5.1zm-55.4-23.1c-.9 0-2.6 0-3.4-.9l-47-18.7c-4.2-1.7-6.8-6.9-4.2-11.1 1.7-4.3 6.8-6.9 11-4.3l47 19.6c4.2 1.7 6.8 6.9 4.2 11.1-.8 2.6-4.2 4.3-7.6 4.3zm-70.9-29c-.8 0-2.5 0-3.4-.9l-18.7-7.7c-4.3-1.7-6.9-6.8-4.3-11 1.7-4.3 6.8-6.9 11-4.3l18.9 7.7c4.2 1.7 6.8 6.8 4.2 11-.8 3.5-4.2 5.2-7.7 5.2zM84.3 110c-3.4 0-6.8-1.8-7.6-5.2-1.8-4.3 0-9.4 4.2-11l24-9.5c4.2-1.7 9.3 0 11 4.3 1.7 4.3 0 9.4-4.3 11l-23.9 9.5c-.8.8-2.5.8-3.4.8zm55.5-23.1c-3.4 0-6.8-1.7-7.7-5.1-1.7-4.3 0-9.4 4.3-11.1l47-19.6c4.2-1.8 9.3 0 11 4.2s0 9.4-4.3 11.1L143.2 86c-1.7.9-2.5.9-3.4.9zm70.8-29c-3.4 0-6.8-1.7-7.7-5.1-1.7-4.3 0-9.4 4.3-11.1L226 34c4.3-1.7 9.4 0 11 4.3 1.8 4.2 0 9.3-4.2 11L214 57c-.8.9-2.5.9-3.4.9zM366 195.3a9 9 0 0 1-7.7-4.3c-2.6-4.3-.9-9.4 3.4-12l24.7-13.6c4.3-2.6 9.4-.9 12 3.4 2.5 4.3.8 9.4-3.5 12l-24.7 13.6c-1.7.9-2.6.9-4.3.9zm54.5-29.9a9 9 0 0 1-7.6-4.3c-2.6-4.2-.9-9.4 3.4-12l22.2-12.7c4.2-2.6 9.4-.9 12 3.4 2.5 4.3.8 9.4-3.5 12l-22.2 12.7c-1.7 0-3.4.9-4.3.9zM442.7 383c-2.5 0-4.2-.9-6-2.6l-17.9-17.9a8.2 8.2 0 0 1 0-12 8.2 8.2 0 0 1 12 0l18 18a8.2 8.2 0 0 1 0 12 7.7 7.7 0 0 1-6 2.5zm-42.6-42.7c-1.7 0-4.3-.8-6-2.5a8.2 8.2 0 0 1 0-12 8.2 8.2 0 0 1 12 0 8.2 8.2 0 0 1 0 12 7.7 7.7 0 0 1-6 2.5zM75.8 118.5c0 18.7-15.4 34.1-34.1 34.1S7.5 137.2 7.5 118.5 23 84.3 41.7 84.3s34.1 15.4 34.1 34.2" transform="translate(1 1)"/><path style="fill:#ffdd09" d="M289.1 41.7c0 18.7-15.3 34.1-34.1 34.1a34.2 34.2 0 0 1 0-68.3 34.2 34.2 0 0 1 34.1 34.2M289.1 468.3c0 18.8-15.3 34.2-34.1 34.2a34.2 34.2 0 0 1 0-68.3 34.2 34.2 0 0 1 34.1 34.1M502.5 118.5a34.2 34.2 0 0 1-34.2 34.1c-18.7 0-34.1-15.4-34.1-34.1s15.4-34.2 34.1-34.2a34.2 34.2 0 0 1 34.2 34.2M502.5 383a34.2 34.2 0 0 1-34.2 34.1 34.2 34.2 0 0 1-34.1-34.1 34.2 34.2 0 0 1 34.1-34.1 34.2 34.2 0 0 1 34.2 34.1M75.8 383c0 18.8-15.4 34.1-34.1 34.1S7.5 401.8 7.5 383s15.4-34.1 34.2-34.1 34.1 15.3 34.1 34.1" transform="translate(1 1)"/><path d="M42.7 358.4c-5.2 0-8.6-3.4-8.6-8.5v-51.2c0-5.2 3.4-8.6 8.6-8.6s8.5 3.4 8.5 8.6v51.2c0 5-3.4 8.5-8.5 8.5zm0-85.3c-5.2 0-8.6-3.4-8.6-8.6V239c0-5 3.4-8.5 8.6-8.5s8.5 3.4 8.5 8.5v25.6c0 5.2-3.4 8.6-8.5 8.6zm0-76.8c-5.2 0-8.6-3.4-8.6-8.6v-34.1c0-5.1 3.4-8.5 8.6-8.5s8.5 3.4 8.5 8.5v34.1c0 5.2-3.4 8.6-8.5 8.6zM221.9 477.9c-.9 0-2.6 0-3.4-.9L197 466.8c-4.2-1.7-6-6.9-4.2-11.1 1.7-4.3 6.8-6 11-4.3l21.4 10.3c4.2 1.7 6 6.8 4.2 11-1.7 3.5-4.2 5.2-7.6 5.2zm-52-24.8c-1 0-2.6 0-3.5-.8l-23-11.1c-4.3-1.7-6-6.9-4.3-11.1 1.7-4.3 6.8-6 11-4.3l23.1 11.1c4.3 1.7 6 6.8 4.3 11.1a9.1 9.1 0 0 1-7.7 5.1zm-62.4-29c-.8 0-2.5 0-3.4-.8l-30.7-14.6c-4.3-1.7-6-6.8-4.3-11s6.8-6 11.1-4.3l30.7 14.5c4.3 1.7 6 6.8 4.3 11-.9 3.5-4.3 5.2-7.7 5.2zM469.3 358.4c-5 0-8.5-3.4-8.5-8.5v-25.6c0-5.2 3.4-8.6 8.5-8.6 5.2 0 8.6 3.4 8.6 8.6v25.6c0 5-3.4 8.5-8.6 8.5zm0-51.2c-5 0-8.5-3.4-8.5-8.5V273c0-5.2 3.4-8.6 8.5-8.6 5.2 0 8.6 3.4 8.6 8.6v25.6c0 5-3.4 8.5-8.6 8.5zm0-59.7c-5 0-8.5-3.4-8.5-8.6v-25.6c0-5 3.4-8.5 8.5-8.5 5.2 0 8.6 3.4 8.6 8.5V239c0 5.2-3.4 8.6-8.6 8.6zm0-51.2c-5 0-8.5-3.4-8.5-8.6v-34.1c0-5.1 3.4-8.5 8.5-8.5 5.2 0 8.6 3.4 8.6 8.5v34.1c0 5.2-3.4 8.6-8.6 8.6z"/><path d="M42.7 162.1c-24 0-42.7-18.7-42.7-42.6s18.8-42.7 42.7-42.7 42.6 18.8 42.6 42.7S66.6 162 42.7 162zm0-68.2c-14.5 0-25.6 11-25.6 25.6S28 145 42.7 145s25.6-11.1 25.6-25.6-11.1-25.6-25.6-25.6zM256 85.3c-23.9 0-42.7-18.7-42.7-42.6S232.1 0 256 0s42.7 18.8 42.7 42.7-18.8 42.6-42.7 42.6zm0-68.2c-14.5 0-25.6 11-25.6 25.6s11 25.6 25.6 25.6c14.5 0 25.6-11.1 25.6-25.6S270.6 17 256 17zM256 512a42.3 42.3 0 0 1-42.7-42.7c0-23.9 18.8-42.6 42.7-42.6s42.7 18.7 42.7 42.6A42.3 42.3 0 0 1 256 512zm0-68.3c-14.5 0-25.6 11.1-25.6 25.6 0 14.5 11 25.6 25.6 25.6 14.5 0 25.6-11 25.6-25.6 0-14.5-11-25.6-25.6-25.6zM469.3 162.1c-23.9 0-42.6-18.7-42.6-42.6s18.7-42.7 42.6-42.7c24 0 42.7 18.8 42.7 42.7S493.2 162 469.3 162zm0-68.2c-14.5 0-25.6 11-25.6 25.6s11.1 25.6 25.6 25.6c14.5 0 25.6-11.1 25.6-25.6s-11-25.6-25.6-25.6zM469.3 426.7a42.3 42.3 0 0 1-42.6-42.7 42.3 42.3 0 0 1 42.6-42.7A42.3 42.3 0 0 1 512 384a42.3 42.3 0 0 1-42.7 42.7zm0-68.3c-14.5 0-25.6 11-25.6 25.6 0 14.5 11.1 25.6 25.6 25.6 14.5 0 25.6-11 25.6-25.6 0-14.5-11-25.6-25.6-25.6zM42.7 426.7A42.3 42.3 0 0 1 0 384c0-23.9 18.8-42.7 42.7-42.7s42.6 18.8 42.6 42.7a42.3 42.3 0 0 1-42.6 42.7zm0-68.3c-14.5 0-25.6 11-25.6 25.6 0 14.5 11 25.6 25.6 25.6s25.6-11 25.6-25.6c0-14.5-11.1-25.6-25.6-25.6zM366 233h-1.6c-5.1-.9-20.5-3.5-29.9-2.6-4.3.9-9.4-2.6-9.4-6.8-.8-4.3 2.6-9.4 6.8-9.4 14.6-2.6 35 2.5 35.9 2.5 4.3.9 7.7 6 6.8 10.3-1.7 3.4-5.1 6-8.5 6zM221.9 221.9c-5.2 0-8.6-3.4-8.6-8.6a34.2 34.2 0 0 0-34.1-34.1c-19.6 0-33.3 13.7-33.3 32.4 0 5.1-3.4 8.6-8.5 8.6s-8.5-3.5-8.5-8.6c0-28.1 21.3-49.5 50.3-49.5s51.2 22.2 51.2 51.2c0 5.2-3.4 8.6-8.5 8.6z"/><path d="M353.3 349.9H163.8c-38.4 0-70-33.3-70-74.3a73.4 73.4 0 0 1 35-63.1 48.7 48.7 0 0 1 50.4-49.5c6.8 0 15.4.8 22.2 3.4 18-23 47-37.5 76-37.5a95.4 95.4 0 0 1 93.8 87.8c27.3 8.6 46 35 46 66.6a63.5 63.5 0 0 1-64 66.6zM179.2 179.2c-19.6 0-33.3 13.7-33.3 32.4v11.1l-5.1 2.6a53.7 53.7 0 0 0-29.9 50.3c0 31.6 24 57.2 53 57.2h189.4c27.3 0 47.8-21.3 47.8-50.3 0-25.6-16.2-47.8-39.3-52.1l-6.8-1.7v-6.8a78.5 78.5 0 0 0-77.7-77.7c-25.6 0-52 13.7-66.5 35.9l-4.3 7.6-6.8-5c-5.1-3.5-14.5-3.5-20.5-3.5zM290.1 477.9c-3.4 0-6-1.7-7.6-5.2-1.8-4.2 0-9.3 4.2-11l21.4-10.3c4.2-1.7 9.3 0 11 4.3 1.8 4.2 0 9.4-4.2 11L293.5 477c-.8.9-2.5.9-3.4.9zm52-24.8c-3.3 0-5.9-1.7-7.6-5.1-1.7-4.3 0-9.4 4.3-11l23-11.2c4.3-1.7 9.4 0 11.1 4.3 1.7 4.2 0 9.4-4.3 11l-22.1 11.2c-1.8.8-2.6.8-4.3.8zm62.4-29c-3.4 0-6-1.7-7.7-5.1-1.7-4.3 0-9.4 4.3-11.1l30.7-14.5c4.3-1.7 9.4 0 11 4.3s0 9.3-4.2 11L408 423.3c-.9.8-2.6.8-3.4.8zM435.2 102.4c-.9 0-2.6 0-3.4-.9l-31.6-12.8c-4.3-1.7-6.8-6.8-4.3-11 1.8-4.3 6.9-6.9 11.1-4.3l31.6 12.8c4.3 1.7 6.8 6.8 4.3 11-.9 3.5-4.3 5.2-7.7 5.2zm-70.8-29c-.9 0-2.6 0-3.4-.9l-24-9.4c-4.2-2.5-6-6.8-4.2-11s6.8-6.9 11-4.3l24 9.4c4.3 1.7 6.8 6.8 4.3 11-1.8 2.6-4.3 5.2-7.7 5.2zm-55.5-23c-.8 0-2.6 0-3.4-1l-18.8-7.6c-4.2-1.7-6.8-6.8-4.2-11 1.7-4.3 6.8-7 11-4.3l18.8 7.6c4.3 1.7 6.8 6.9 4.3 11.1-.9 3.4-4.3 5.1-7.7 5.1zM76.8 102.4c-3.4 0-6.8-1.7-7.7-5.1-1.7-4.3 0-9.4 4.3-11.1L105 73.4c4.2-1.7 9.3 0 11 4.3 1.8 4.2 0 9.3-4.2 11l-31.6 12.8c-.8.9-2.5.9-3.4.9zm70.8-29c-3.4 0-6.8-1.7-7.7-5.1-1.7-4.3 0-9.4 4.3-11.1l24-9.4c4.2-1.7 9.3 0 11 4.3s0 9.3-4.3 11L151 72.5c-.8 0-2.5.9-3.4.9zm55.5-23c-3.4 0-6.8-1.8-7.7-5.2-1.7-4.2 0-9.4 4.3-11l18.8-7.7c4.2-1.8 9.3 0 11 4.2s0 9.4-4.2 11.1l-18.8 7.7c-.8.8-2.6.8-3.4.8z"/><path d="M358.4 187.7a9 9 0 0 1-7.7-4.2c-2.5-4.3-.8-9.4 3.4-12L379 158c4.2-2.6 9.4-.9 12 3.4 2.5 4.2.8 9.4-3.5 12l-24.7 13.6c-1.7.8-2.6.8-4.3.8zM413 158a9 9 0 0 1-7.7-4.3c-2.5-4.3-.8-9.4 3.4-12L431 129c4.3-2.6 9.4-.9 12 3.4 2.5 4.2.8 9.4-3.4 12L417.3 157c-1.7 0-3.4.9-4.3.9zM68.3 367c-2.6 0-5.2-1.8-6.9-3.5-2.5-4.2-1.7-9.4 2.6-12l21.3-14.4c4.3-2.6 9.4-1.7 12 2.5 2.5 4.3 1.7 9.4-2.6 12L73.4 366c-1.7 0-3.4.8-5.1.8zm49.5-33.3c-2.6 0-5.2-1.8-6.9-3.5-2.5-4.2-1.7-9.3 2.6-12l1.7-.8c4.3-2.5 9.4-1.7 12 2.6 2.5 4.3 1.7 9.4-2.6 12l-1.7.8c-1.7.9-3.4.9-5.1.9zM435.2 375.5c-2.6 0-4.3-.9-6-2.6l-12-12a8.2 8.2 0 0 1 0-11.9 8.2 8.2 0 0 1 12 0l12 12a8.2 8.2 0 0 1 0 12 7.8 7.8 0 0 1-6 2.5zm-29.9-29.9c-2.5 0-4.2-.9-6-2.6l-12.7-12.8a8.2 8.2 0 0 1 0-12 8.2 8.2 0 0 1 12 0l12.7 12.9a8.2 8.2 0 0 1 0 12 9.2 9.2 0 0 1-6 2.5zM145 196.3c-1.6 0-3.3 0-4.2-1.7l-18-11.1c-4.2-2.6-5-7.7-2.5-12 2.6-4.2 7.7-5.1 12-2.5l17.9 11c4.3 2.6 5.1 7.7 2.5 12a10.2 10.2 0 0 1-7.6 4.3zm-46.9-29c-1.7 0-3.4 0-4.2-1.8L72.5 152c-4.2-2.6-5-7.7-2.5-12 2.5-4.2 7.7-5 12-2.5l21.3 13.6c4.2 2.6 5 7.7 2.5 12a9 9 0 0 1-7.7 4.3z"/>
	</symbol>
	<symbol id="feature-h" viewBox="0 0 512 512">
		<path style="fill:#ffdd09" d="M33.1 366H477V144H33v222z" transform="translate(1 1)"/><path style="fill:#fcc309" d="M488.8 502.5H21.2c-7.7 0-13.7-6-13.7-13.7V366h495v123c0 7.6-6 13.6-13.7 13.6M502.5 144H7.5V21.3c0-7.7 6-13.7 13.7-13.7h467.6c7.7 0 13.7 6 13.7 13.7V144z" transform="translate(1 1)"/><path style="fill:#fff" d="M7.5 494h25.6V16H7.5v478z" transform="translate(1 1)"/><path style="fill:#fd9808" d="M476.9 494h25.6V16h-25.6v478z" transform="translate(1 1)"/><path style="fill:#db4d6c" d="M41.7 229.4H144v-51.2H41.7v51.2z" transform="translate(1 1)"/><path style="fill:#1cd759" d="M110 331.8H58.6c-5 0-8.5-3.4-8.5-8.5V272c0-5.2 3.4-8.6 8.5-8.6H110c5.2 0 8.6 3.4 8.6 8.6v51.2c0 5-3.4 8.5-8.6 8.5" transform="translate(1 1)"/><path style="fill:#54c9fd" d="M340.3 331.8H169.7c-5.2 0-8.6-3.4-8.6-8.5V272c0-5.2 3.4-8.6 8.6-8.6h170.6c5.2 0 8.6 3.4 8.6 8.6v51.2c0 5-3.4 8.5-8.6 8.5" transform="translate(1 1)"/><path style="fill:#1cd759" d="M451.3 331.8H400c-5.2 0-8.6-3.4-8.6-8.5V272c0-5.2 3.4-8.6 8.6-8.6h51.2c5 0 8.5 3.4 8.5 8.6v51.2c0 5-3.4 8.5-8.5 8.5M425.7 41.7c18.7 0 34.1 15.3 34.1 34.1a34.2 34.2 0 0 1-68.3 0 34.2 34.2 0 0 1 34.2-34.1" transform="translate(1 1)"/><path style="fill:#54c9fd" d="M217.5 101.4H190a3.7 3.7 0 0 1-3.4-3.4V53.6c0-1.7 1.7-3.4 3.4-3.4h27.4c1.7 0 3.4 1.7 3.4 3.4V98c0 1.7-1.7 3.4-3.4 3.4" transform="translate(1 1)"/><path style="fill:#1cd759" d="M149.2 101.4h-27.3a3.7 3.7 0 0 1-3.4-3.4V53.6c0-1.7 1.7-3.4 3.4-3.4h27.3c1.7 0 3.4 1.7 3.4 3.4V98c0 1.7-1.7 3.4-3.4 3.4" transform="translate(1 1)"/><path style="fill:#54c9fd" d="M81 101.4H53.5a3.7 3.7 0 0 1-3.4-3.4V53.6c0-1.7 1.7-3.4 3.4-3.4H81c1.7 0 3.4 1.7 3.4 3.4V98c0 1.7-1.7 3.4-3.4 3.4" transform="translate(1 1)"/><path style="fill:#1cd759" d="M285.7 101.4h-27.3A3.7 3.7 0 0 1 255 98V53.6c0-1.7 1.7-3.4 3.4-3.4h27.3c1.7 0 3.4 1.7 3.4 3.4V98c0 1.7-1.7 3.4-3.4 3.4" transform="translate(1 1)"/><path style="fill:#54c9fd" d="M354 101.4h-27.3a3.7 3.7 0 0 1-3.4-3.4V53.6c0-1.7 1.7-3.4 3.4-3.4H354c1.7 0 3.4 1.7 3.4 3.4V98c0 1.7-1.7 3.4-3.4 3.4" transform="translate(1 1)"/><path style="fill:#1cd759" d="M425.7 400a34.2 34.2 0 0 1 34.1 34.2c0 18.8-15.4 34.1-34.1 34.1s-34.2-15.3-34.2-34.1a34.2 34.2 0 0 1 34.2-34.1M217.5 459.8H190a3.7 3.7 0 0 1-3.4-3.4V412c0-1.7 1.7-3.4 3.4-3.4h27.4c1.7 0 3.4 1.7 3.4 3.4v44.4c0 1.7-1.7 3.4-3.4 3.4" transform="translate(1 1)"/><path style="fill:#54c9fd" d="M149.2 459.8h-27.3a3.7 3.7 0 0 1-3.4-3.4V412c0-1.7 1.7-3.4 3.4-3.4h27.3c1.7 0 3.4 1.7 3.4 3.4v44.4c0 1.7-1.7 3.4-3.4 3.4" transform="translate(1 1)"/><path style="fill:#1cd759" d="M81 459.8H53.5a3.7 3.7 0 0 1-3.4-3.4V412c0-1.7 1.7-3.4 3.4-3.4H81c1.7 0 3.4 1.7 3.4 3.4v44.4c0 1.7-1.7 3.4-3.4 3.4" transform="translate(1 1)"/><path style="fill:#54c9fd" d="M285.7 459.8h-27.3a3.7 3.7 0 0 1-3.4-3.4V412c0-1.7 1.7-3.4 3.4-3.4h27.3c1.7 0 3.4 1.7 3.4 3.4v44.4c0 1.7-1.7 3.4-3.4 3.4" transform="translate(1 1)"/><path style="fill:#1cd759" d="M354 459.8h-27.3a3.7 3.7 0 0 1-3.4-3.4V412c0-1.7 1.7-3.4 3.4-3.4H354c1.7 0 3.4 1.7 3.4 3.4v44.4c0 1.7-1.7 3.4-3.4 3.4" transform="translate(1 1)"/><path d="M489.8 512H22.2C10.2 512 0 501.8 0 489.8V358.4h512v131.4c0 12-10.2 22.2-22.2 22.2zM17.1 375.5v114.3c0 2.6 2.5 5.1 5 5.1h467.7c2.6 0 5.1-2.5 5.1-5V375.4H17.1zM512 153.6H0V22.2C0 10.2 10.2 0 22.2 0h467.6c12 0 22.2 10.2 22.2 22.2v131.4zm-495-17h478V22.1c0-2.6-2.6-5.1-5.2-5.1H22.2a5.5 5.5 0 0 0-5.1 5v114.4z"/><path d="M512 375.5H0v-239h512v239zM17 358.4h478V153.6H17v204.8z"/><path d="M367 230.4c0 5.1-3.5 8.5-8.6 8.5s-8.5-3.4-8.5-8.5 3.4-8.5 8.5-8.5 8.5 3.4 8.5 8.5M401 230.4c0 5.1-3.3 8.5-8.5 8.5s-8.5-3.4-8.5-8.5 3.4-8.5 8.5-8.5 8.6 3.4 8.6 8.5M298.7 230.4c0 5.1-3.4 8.5-8.6 8.5-5 0-8.5-3.4-8.5-8.5s3.4-8.5 8.5-8.5c5.2 0 8.6 3.4 8.6 8.5M332.8 230.4c0 5.1-3.4 8.5-8.5 8.5-5.2 0-8.6-3.4-8.6-8.5s3.4-8.5 8.6-8.5c5 0 8.5 3.4 8.5 8.5M230.4 230.4c0 5.1-3.4 8.5-8.5 8.5-5.2 0-8.6-3.4-8.6-8.5s3.4-8.5 8.6-8.5c5 0 8.5 3.4 8.5 8.5M264.5 230.4c0 5.1-3.4 8.5-8.5 8.5s-8.5-3.4-8.5-8.5 3.4-8.5 8.5-8.5 8.5 3.4 8.5 8.5M196.3 230.4c0 5.1-3.4 8.5-8.6 8.5-5 0-8.5-3.4-8.5-8.5s3.4-8.5 8.5-8.5c5.2 0 8.6 3.4 8.6 8.5M435.2 230.4c0 5.1-3.4 8.5-8.5 8.5s-8.6-3.4-8.6-8.5 3.4-8.5 8.6-8.5 8.5 3.4 8.5 8.5M469.3 230.4c0 5.1-3.4 8.5-8.5 8.5s-8.5-3.4-8.5-8.5 3.4-8.5 8.5-8.5 8.5 3.4 8.5 8.5M384 204.8c0 5.1-3.4 8.5-8.5 8.5-5.2 0-8.6-3.4-8.6-8.5s3.4-8.5 8.6-8.5c5 0 8.5 3.4 8.5 8.5M418.1 204.8c0 5.1-3.4 8.5-8.5 8.5s-8.5-3.4-8.5-8.5 3.4-8.5 8.5-8.5 8.5 3.4 8.5 8.5M315.7 204.8c0 5.1-3.4 8.5-8.5 8.5s-8.5-3.4-8.5-8.5 3.4-8.5 8.5-8.5 8.5 3.4 8.5 8.5M349.9 204.8c0 5.1-3.4 8.5-8.6 8.5-5 0-8.5-3.4-8.5-8.5s3.4-8.5 8.5-8.5c5.2 0 8.6 3.4 8.6 8.5M247.5 204.8c0 5.1-3.4 8.5-8.6 8.5-5 0-8.5-3.4-8.5-8.5s3.4-8.5 8.5-8.5c5.2 0 8.6 3.4 8.6 8.5M281.6 204.8c0 5.1-3.4 8.5-8.5 8.5s-8.6-3.4-8.6-8.5 3.4-8.5 8.6-8.5 8.5 3.4 8.5 8.5M213.3 204.8c0 5.1-3.4 8.5-8.5 8.5s-8.5-3.4-8.5-8.5 3.4-8.5 8.5-8.5 8.5 3.4 8.5 8.5M452.3 204.8c0 5.1-3.4 8.5-8.6 8.5-5 0-8.5-3.4-8.5-8.5s3.4-8.5 8.5-8.5c5.2 0 8.6 3.4 8.6 8.5M469.3 187.7H179.2c-5.1 0-8.5-3.4-8.5-8.5s3.4-8.5 8.5-8.5h290.1c5.2 0 8.6 3.4 8.6 8.5s-3.4 8.5-8.6 8.5zM145 239H42.8c-5.2 0-8.6-3.5-8.6-8.6v-51.2c0-5.1 3.4-8.5 8.6-8.5H145c5 0 8.5 3.4 8.5 8.5v51.2c0 5.1-3.4 8.5-8.5 8.5zm-93.8-17.1h85.3v-34.2H51.2V222zM111 341.3H59.6c-9.4 0-17-7.6-17-17V273c0-9.4 7.6-17.1 17-17.1H111c9.4 0 17.1 7.7 17.1 17v51.3c0 9.4-7.7 17-17 17zm-51.3-68.2v51.2H111V273H59.7zM341.3 341.3H170.7c-9.4 0-17.1-7.6-17.1-17V273c0-9.4 7.7-17.1 17-17.1h170.7c9.4 0 17.1 7.7 17.1 17v51.3c0 9.4-7.7 17-17 17zm-170.6-68.2v51.2h170.6V273H170.7zM452.3 341.3H401c-9.4 0-17.1-7.6-17.1-17V273c0-9.4 7.7-17.1 17-17.1h51.3c9.4 0 17 7.7 17 17v51.3c0 9.4-7.6 17-17 17zM401 273.1v51.2h51.2V273H401zM426.7 119.5c-24 0-42.7-18.8-42.7-42.7s18.8-42.7 42.7-42.7 42.6 18.8 42.6 42.7-18.7 42.7-42.6 42.7zm0-68.3c-14.5 0-25.6 11-25.6 25.6s11 25.6 25.6 25.6 25.6-11 25.6-25.6-11.1-25.6-25.6-25.6zM218.5 111H191c-6.8 0-11.9-5.2-11.9-12V54.6c0-6.8 5.1-12 12-12h27.3c6.8 0 11.9 5.2 11.9 12V99c0 6.8-5.1 12-12 12zm-22.2-17.1h17V59.7h-17V94zM150.2 111h-27.3c-6.8 0-12-5.2-12-12V54.6c0-6.8 5.2-12 12-12h27.3c6.8 0 12 5.2 12 12V99c0 6.8-5.2 12-12 12zM128 93.8h17V59.7h-17V94zM82 111H54.5c-6.8 0-12-5.2-12-12V54.6c0-6.8 5.2-12 12-12H82c6.8 0 12 5.2 12 12V99c0 6.8-5.2 12-12 12zM59.6 93.8h17.1V59.7h-17V94zM286.7 111h-27.3c-6.8 0-12-5.2-12-12V54.6c0-6.8 5.2-12 12-12h27.3c6.8 0 12 5.2 12 12V99c0 6.8-5.2 12-12 12zm-22.2-17.1h17.1V59.7h-17V94zM355 111h-27.3c-6.8 0-12-5.2-12-12V54.6c0-6.8 5.2-12 12-12H355c6.8 0 12 5.2 12 12V99c0 6.8-5.2 12-12 12zm-22.2-17.1h17V59.7h-17V94zM426.7 477.9a42.3 42.3 0 0 1-42.7-42.7c0-23.9 18.8-42.7 42.7-42.7s42.6 18.8 42.6 42.7a42.3 42.3 0 0 1-42.6 42.7zm0-68.3c-14.5 0-25.6 11-25.6 25.6 0 14.5 11 25.6 25.6 25.6s25.6-11 25.6-25.6c0-14.5-11.1-25.6-25.6-25.6zM218.5 469.3H191c-6.8 0-11.9-5-11.9-12V413c0-6.8 5.1-12 12-12h27.3c6.8 0 11.9 5.2 11.9 12v44.4c0 6.8-5.1 12-12 12zm-22.2-17h17V418h-17v34.2zM150.2 469.3h-27.3c-6.8 0-12-5-12-12V413c0-6.8 5.2-12 12-12h27.3c6.8 0 12 5.2 12 12v44.4c0 6.8-5.2 12-12 12zm-22.2-17h17V418h-17v34.2zM82 469.3H54.5c-6.8 0-12-5-12-12V413c0-6.8 5.2-12 12-12H82c6.8 0 12 5.2 12 12v44.4c0 6.8-5.2 12-12 12zm-22.3-17h17.1V418h-17v34.2zM286.7 469.3h-27.3c-6.8 0-12-5-12-12V413c0-6.8 5.2-12 12-12h27.3c6.8 0 12 5.2 12 12v44.4c0 6.8-5.2 12-12 12zm-22.2-17h17.1V418h-17v34.2zM355 469.3h-27.3c-6.8 0-12-5-12-12V413c0-6.8 5.2-12 12-12H355c6.8 0 12 5.2 12 12v44.4c0 6.8-5.2 12-12 12zm-22.2-17h17V418h-17v34.2z"/><path d="M298.7 307.2h-85.4c-5 0-8.5-3.4-8.5-8.5s3.4-8.6 8.5-8.6h85.4c5 0 8.5 3.4 8.5 8.6s-3.4 8.5-8.5 8.5z"/>
	</symbol>
	<symbol id="feature-i" viewBox="0 0 512 512">
		<path style="fill:#ffdd09" d="M502.5 41.7h-42.7c-5.1 0-8.5-3.4-8.5-8.6s3.4-8.5 8.5-8.5h42.7c5 0 8.5 3.4 8.5 8.5s-3.4 8.6-8.5 8.6zM425.7 41.7H417c-5 0-8.5-3.4-8.5-8.6s3.4-8.5 8.5-8.5h8.6c5 0 8.5 3.4 8.5 8.5s-3.4 8.6-8.5 8.6zM451.3 75.8H417c-5 0-8.5-3.4-8.5-8.5s3.4-8.6 8.5-8.6h34.2c5 0 8.5 3.4 8.5 8.6s-3.4 8.5-8.5 8.5zM502.5 75.8h-17.1c-5.1 0-8.5-3.4-8.5-8.5s3.4-8.6 8.5-8.6h17c5.2 0 8.6 3.4 8.6 8.6s-3.4 8.5-8.5 8.5zM502.5 485.4H24.6c-5.1 0-8.5-3.4-8.5-8.5 0-5.2 3.4-8.6 8.5-8.6h477.9c5 0 8.5 3.4 8.5 8.6 0 5-3.4 8.5-8.5 8.5z" transform="translate(1 1)"/><path style="fill:#ffdd09" d="M67.3 511c-5.2 0-8.6-3.4-8.6-8.5v-34.2c0-5 3.4-8.5 8.6-8.5s8.5 3.4 8.5 8.5v34.2c0 5-3.4 8.5-8.5 8.5zM110 511c-5.2 0-8.6-3.4-8.6-8.5v-34.2c0-5 3.4-8.5 8.5-8.5s8.6 3.4 8.6 8.5v34.2c0 5-3.4 8.5-8.6 8.5zM152.6 511c-5.1 0-8.5-3.4-8.5-8.5v-34.2c0-5 3.4-8.5 8.5-8.5s8.5 3.4 8.5 8.5v34.2c0 5-3.4 8.5-8.5 8.5zM195.3 511c-5.2 0-8.6-3.4-8.6-8.5v-34.2c0-5 3.4-8.5 8.6-8.5 5 0 8.5 3.4 8.5 8.5v34.2c0 5-3.4 8.5-8.5 8.5zM238 511c-5.2 0-8.6-3.4-8.6-8.5v-34.2c0-5 3.4-8.5 8.5-8.5 5.2 0 8.6 3.4 8.6 8.5v34.2c0 5-3.4 8.5-8.6 8.5zM280.6 511c-5.1 0-8.5-3.4-8.5-8.5v-34.2c0-5 3.4-8.5 8.5-8.5s8.5 3.4 8.5 8.5v34.2c0 5-3.4 8.5-8.5 8.5zM323.3 511c-5.2 0-8.6-3.4-8.6-8.5v-34.2c0-5 3.4-8.5 8.6-8.5 5 0 8.5 3.4 8.5 8.5v34.2c0 5-3.4 8.5-8.5 8.5zM366 511c-5.2 0-8.6-3.4-8.6-8.5v-34.2c0-5 3.4-8.5 8.5-8.5s8.6 3.4 8.6 8.5v34.2c0 5-3.4 8.5-8.6 8.5zM408.6 511c-5.1 0-8.5-3.4-8.5-8.5v-34.2c0-5 3.4-8.5 8.5-8.5s8.5 3.4 8.5 8.5v34.2c0 5-3.4 8.5-8.5 8.5zM451.3 511c-5.2 0-8.6-3.4-8.6-8.5v-34.2c0-5 3.4-8.5 8.6-8.5s8.5 3.4 8.5 8.5v34.2c0 5-3.4 8.5-8.5 8.5zM494 511c-5.2 0-8.6-3.4-8.6-8.5v-34.2c0-5 3.4-8.5 8.5-8.5 5.2 0 8.6 3.4 8.6 8.5v34.2c0 5-3.4 8.5-8.6 8.5zM33.1 494c-5 0-8.5-3.5-8.5-8.6V7.5c0-5 3.4-8.5 8.5-8.5s8.6 3.4 8.6 8.5v477.9c0 5.1-3.4 8.5-8.6 8.5z" transform="translate(1 1)"/><path style="fill:#ffdd09" d="M41.7 50.2H7.5c-5 0-8.5-3.4-8.5-8.5S2.4 33 7.5 33h34.2c5 0 8.5 3.4 8.5 8.6s-3.4 8.5-8.5 8.5zM41.7 92.9H7.5c-5 0-8.5-3.4-8.5-8.6s3.4-8.5 8.5-8.5h34.2c5 0 8.5 3.4 8.5 8.5S46.8 93 41.7 93zM41.7 135.5H7.5c-5 0-8.5-3.4-8.5-8.5s3.4-8.5 8.5-8.5h34.2c5 0 8.5 3.4 8.5 8.5s-3.4 8.5-8.5 8.5zM41.7 178.2H7.5c-5 0-8.5-3.4-8.5-8.5 0-5.2 3.4-8.6 8.5-8.6h34.2c5 0 8.5 3.4 8.5 8.6 0 5-3.4 8.5-8.5 8.5zM41.7 220.9H7.5c-5 0-8.5-3.4-8.5-8.6 0-5 3.4-8.5 8.5-8.5h34.2c5 0 8.5 3.4 8.5 8.5 0 5.2-3.4 8.6-8.5 8.6zM41.7 263.5H7.5c-5 0-8.5-3.4-8.5-8.5s3.4-8.5 8.5-8.5h34.2c5 0 8.5 3.4 8.5 8.5s-3.4 8.5-8.5 8.5zM41.7 306.2H7.5c-5 0-8.5-3.4-8.5-8.5s3.4-8.6 8.5-8.6h34.2c5 0 8.5 3.4 8.5 8.6s-3.4 8.5-8.5 8.5zM41.7 348.9H7.5c-5 0-8.5-3.4-8.5-8.6 0-5 3.4-8.5 8.5-8.5h34.2c5 0 8.5 3.4 8.5 8.5 0 5.2-3.4 8.6-8.5 8.6zM41.7 391.5H7.5c-5 0-8.5-3.4-8.5-8.5s3.4-8.5 8.5-8.5h34.2c5 0 8.5 3.4 8.5 8.5s-3.4 8.5-8.5 8.5zM41.7 434.2H7.5c-5 0-8.5-3.4-8.5-8.5s3.4-8.6 8.5-8.6h34.2c5 0 8.5 3.4 8.5 8.6s-3.4 8.5-8.5 8.5zM24.6 476.9h-17c-5.2 0-8.6-3.4-8.6-8.6 0-5 3.4-8.5 8.5-8.5h17.1c5.1 0 8.5 3.4 8.5 8.5 0 5.2-3.4 8.6-8.5 8.6z" transform="translate(1 1)"/><path style="fill:#1cd759" d="M84.3 101.4h119.5V33.1H84.3v68.3z" transform="translate(1 1)"/><path style="fill:#15a143" d="M203.8 101.4h68.3V33.1h-68.3v68.3z" transform="translate(1 1)"/><path style="fill:#fd9808" d="M85.2 323.3h68.3V255H85.2v68.3z" transform="translate(1 1)"/><path style="fill:#ffdd09" d="M84.3 434.2h187.8v-68.3H84.3v68.3z" transform="translate(1 1)"/><path style="fill:#fd7308" d="M152.6 323.3h204.8V255H152.6v68.3z" transform="translate(1 1)"/><path style="fill:#fd9808" d="M272 434.2h213.4v-68.3H272.1v68.3z" transform="translate(1 1)"/><path style="fill:#54c9fd" d="M84.3 212.3h256v-68.2h-256v68.2z" transform="translate(1 1)"/><path style="fill:#33a9f8" d="M340.3 212.3h85.4v-68.2h-85.4v68.2z" transform="translate(1 1)"/><path d="M25.6 495c-5.1 0-8.5-3.5-8.5-8.6V8.5c0-5 3.4-8.5 8.5-8.5s8.5 3.4 8.5 8.5v477.9c0 5.1-3.4 8.5-8.5 8.5z"/><path d="M503.5 495H25.6c-5.1 0-8.5-3.5-8.5-8.6s3.4-8.5 8.5-8.5h477.9c5 0 8.5 3.4 8.5 8.5s-3.4 8.5-8.5 8.5zM42.7 42.7H8.5c-5 0-8.5-3.4-8.5-8.6s3.4-8.5 8.5-8.5h34.2c5 0 8.5 3.4 8.5 8.5s-3.4 8.6-8.5 8.6zM42.7 85.3H8.5c-5 0-8.5-3.4-8.5-8.5s3.4-8.5 8.5-8.5h34.2c5 0 8.5 3.4 8.5 8.5s-3.4 8.5-8.5 8.5zM42.7 128H8.5c-5 0-8.5-3.4-8.5-8.5s3.4-8.6 8.5-8.6h34.2c5 0 8.5 3.4 8.5 8.6s-3.4 8.5-8.5 8.5zM42.7 170.7H8.5c-5 0-8.5-3.4-8.5-8.6 0-5 3.4-8.5 8.5-8.5h34.2c5 0 8.5 3.4 8.5 8.5 0 5.2-3.4 8.6-8.5 8.6zM42.7 213.3H8.5c-5 0-8.5-3.4-8.5-8.5s3.4-8.5 8.5-8.5h34.2c5 0 8.5 3.4 8.5 8.5s-3.4 8.5-8.5 8.5zM42.7 256H8.5c-5 0-8.5-3.4-8.5-8.5 0-5.2 3.4-8.6 8.5-8.6h34.2c5 0 8.5 3.4 8.5 8.6 0 5-3.4 8.5-8.5 8.5zM42.7 298.7H8.5c-5 0-8.5-3.4-8.5-8.6 0-5 3.4-8.5 8.5-8.5h34.2c5 0 8.5 3.4 8.5 8.5 0 5.2-3.4 8.6-8.5 8.6zM42.7 341.3H8.5c-5 0-8.5-3.4-8.5-8.5s3.4-8.5 8.5-8.5h34.2c5 0 8.5 3.4 8.5 8.5s-3.4 8.5-8.5 8.5zM42.7 384H8.5c-5 0-8.5-3.4-8.5-8.5 0-5.2 3.4-8.6 8.5-8.6h34.2c5 0 8.5 3.4 8.5 8.6 0 5-3.4 8.5-8.5 8.5zM42.7 426.7H8.5c-5 0-8.5-3.4-8.5-8.6s3.4-8.5 8.5-8.5h34.2c5 0 8.5 3.4 8.5 8.5s-3.4 8.6-8.5 8.6zM25.6 469.3h-17c-5.2 0-8.6-3.4-8.6-8.5s3.4-8.5 8.5-8.5h17.1c5.1 0 8.5 3.4 8.5 8.5s-3.4 8.5-8.5 8.5z"/><path d="M59.7 512c-5 0-8.5-3.4-8.5-8.5v-34.2c0-5 3.4-8.5 8.5-8.5s8.6 3.4 8.6 8.5v34.2c0 5-3.4 8.5-8.6 8.5zM102.4 512c-5.1 0-8.5-3.4-8.5-8.5v-34.2c0-5 3.4-8.5 8.5-8.5s8.5 3.4 8.5 8.5v34.2c0 5-3.4 8.5-8.5 8.5zM145 512c-5 0-8.5-3.4-8.5-8.5v-34.2c0-5 3.4-8.5 8.6-8.5 5 0 8.5 3.4 8.5 8.5v34.2c0 5-3.4 8.5-8.5 8.5zM187.7 512c-5 0-8.5-3.4-8.5-8.5v-34.2c0-5 3.4-8.5 8.5-8.5 5.2 0 8.6 3.4 8.6 8.5v34.2c0 5-3.4 8.5-8.6 8.5zM230.4 512c-5.1 0-8.5-3.4-8.5-8.5v-34.2c0-5 3.4-8.5 8.5-8.5s8.5 3.4 8.5 8.5v34.2c0 5-3.4 8.5-8.5 8.5zM273 512c-5 0-8.5-3.4-8.5-8.5v-34.2c0-5 3.4-8.5 8.6-8.5s8.5 3.4 8.5 8.5v34.2c0 5-3.4 8.5-8.5 8.5zM315.7 512c-5 0-8.5-3.4-8.5-8.5v-34.2c0-5 3.4-8.5 8.5-8.5 5.2 0 8.6 3.4 8.6 8.5v34.2c0 5-3.4 8.5-8.6 8.5zM358.4 512c-5.1 0-8.5-3.4-8.5-8.5v-34.2c0-5 3.4-8.5 8.5-8.5s8.5 3.4 8.5 8.5v34.2c0 5-3.4 8.5-8.5 8.5zM401 512c-5 0-8.5-3.4-8.5-8.5v-34.2c0-5 3.4-8.5 8.6-8.5s8.5 3.4 8.5 8.5v34.2c0 5-3.4 8.5-8.5 8.5zM443.7 512c-5 0-8.5-3.4-8.5-8.5v-34.2c0-5 3.4-8.5 8.5-8.5 5.2 0 8.6 3.4 8.6 8.5v34.2c0 5-3.4 8.5-8.6 8.5zM486.4 512c-5.1 0-8.5-3.4-8.5-8.5v-34.2c0-5 3.4-8.5 8.5-8.5s8.5 3.4 8.5 8.5v34.2c0 5-3.4 8.5-8.5 8.5zM266.2 111H76.8V25.5h189.4c8.6 0 15.4 6.8 15.4 15.4v54.6c0 8.5-6.8 15.3-15.4 15.3zM94 93.8h170.6V42.7H94v51.2zM419.8 221.9h-343v-85.4h343c8.6 0 15.4 6.9 15.4 15.4v54.6c0 8.5-6.8 15.4-15.4 15.4zm-326-17.1h324.3v-51.2H94v51.2zM351.6 332.8H76.8v-85.3h274.8c8.5 0 15.3 6.8 15.3 15.3v54.6c0 8.6-6.8 15.4-15.3 15.4zm-257.7-17h256v-51.3h-256v51.2zM479.6 443.7H76.8v-85.3h402.8c8.5 0 15.3 6.8 15.3 15.4v54.6c0 8.5-6.8 15.3-15.3 15.3zm-385.7-17h384v-51.2h-384v51.2zM503.5 34.1h-42.7c-5.1 0-8.5-3.4-8.5-8.5s3.4-8.5 8.5-8.5h42.7c5 0 8.5 3.4 8.5 8.5s-3.4 8.5-8.5 8.5zM426.7 34.1H418c-5 0-8.5-3.4-8.5-8.5s3.4-8.5 8.5-8.5h8.6c5 0 8.5 3.4 8.5 8.5s-3.4 8.5-8.5 8.5zM452.3 68.3H418c-5 0-8.5-3.4-8.5-8.6s3.4-8.5 8.5-8.5h34.2c5 0 8.5 3.4 8.5 8.5s-3.4 8.6-8.5 8.6zM503.5 68.3h-17.1c-5.1 0-8.5-3.4-8.5-8.6s3.4-8.5 8.5-8.5h17c5.2 0 8.6 3.4 8.6 8.5s-3.4 8.6-8.5 8.6z"/><path d="M204.8 111c-5.1 0-8.5-3.5-8.5-8.6V34.1c0-5 3.4-8.5 8.5-8.5s8.5 3.4 8.5 8.5v68.3c0 5.1-3.4 8.5-8.5 8.5zM341.3 221.9c-5 0-8.5-3.4-8.5-8.6v-68.2c0-5.2 3.4-8.6 8.5-8.6 5.2 0 8.6 3.4 8.6 8.6v68.2c0 5.2-3.4 8.6-8.6 8.6zM153.6 332.8c-5.1 0-8.5-3.4-8.5-8.5V256c0-5.1 3.4-8.5 8.5-8.5s8.5 3.4 8.5 8.5v68.3c0 5-3.4 8.5-8.5 8.5zM273 443.7c-5 0-8.5-3.4-8.5-8.5v-68.3c0-5 3.4-8.5 8.6-8.5s8.5 3.4 8.5 8.5v68.3c0 5.1-3.4 8.5-8.5 8.5z"/>
	</symbol>	
</svg>