<svg width="81" height="36" xmlns="http://www.w3.org/2000/svg"><g fill="none" fill-rule="evenodd"><path d="M79.9 29.4c0 2.9-2.4 5.2-5.2 5.2h-69a5.2 5.2 0 0 1-5.2-5.2v-23C.5 3.7 3 1.4 5.7 1.4h69c2.9 0 5.2 2.4 5.2 5.2v23Z" stroke="#D3D3D3" stroke-width=".9"/><g transform="translate(9.7 8.5)"><g fill="#2E3083"><path d="M21.7 15.1h-2.2V4.3h2.2v10.8ZM25.5 7l.1 1c.6-.7 1.3-1 2.3-1 .8 0 1.5.1 1.9.7.4.5.6 1.2.6 2.2v5.2h-2.1V10c0-.5-.1-.8-.3-1-.2-.2-.5-.3-1-.3s-1 .2-1.3.8V15h-2.2v-8h2ZM36.3 12.9c0-.3 0-.5-.4-.7a4 4 0 0 0-1.2-.4c-1.9-.4-2.9-1.2-2.9-2.4 0-.7.3-1.3.9-1.8.6-.5 1.4-.7 2.3-.7 1 0 1.8.2 2.4.7.6.5.9 1.1.9 1.9h-2.1c0-.3-.1-.6-.3-.8-.2-.2-.5-.3-1-.3-.3 0-.6 0-.8.2-.2.2-.3.4-.3.7 0 .2.1.4.4.6l1.1.4c.6 0 1 .2 1.3.3 1.2.4 1.7 1.2 1.7 2.1a2 2 0 0 1-1 1.8 4 4 0 0 1-2.3.7c-.7 0-1.3-.1-1.8-.3a3 3 0 0 1-1.2-1c-.3-.4-.5-.9-.5-1.3h2c0 .4.2.7.4.8.3.3.7.3 1 .3.5 0 .8 0 1-.2.3-.2.4-.4.4-.6ZM42.3 5v2h1.4v1.6h-1.4v4l.2.7.6.1h.7V15l-1.3.2c-1.5 0-2.3-.8-2.3-2.3V8.6H39V7.1h1.2V5h2.1ZM49.5 15.1l-.2-.7c-.6.6-1.2.9-2 .9s-1.5-.3-2-.7c-.5-.5-.7-1-.7-1.7 0-1 .3-1.5.9-2 .6-.5 1.5-.7 2.7-.7h1v-.5c0-.3-.2-.7-.3-.8-.2-.3-.6-.4-1-.4-.3 0-.6.1-.8.3-.2.2-.3.4-.3.7h-2.1c0-.5.1-1 .4-1.3.3-.4.7-.7 1.2-.9.5-.2 1-.3 1.8-.3 1 0 1.7.2 2.3.7.6.5.9 1.2.9 2.1v3.5c0 .7 0 1.3.3 1.7v.1h-2.1Zm-1.8-1.5c.3 0 .6 0 .9-.2.3-.1.4-.4.5-.6v-1.4h-.8c-1 0-1.6.4-1.7 1.1v.1c0 .3.1.5.3.7.2.2.5.3.8.3ZM55.2 15.1h-2.1V3.7h2.1V15ZM59.1 15.1h-2V3.7h2V15Z"/></g><path d="M14.4 14c0 .4-.3.8-.8.8H1.3a.8.8 0 0 1-.8-.9v-3.1c0-.5.3-.8.8-.8h12.3c.5 0 .8.3.8.8v3.1Z" fill="#F68B2D"/><circle fill="#FFF" cx="9.9" cy="12.4" r=".7"/><circle fill="#FFF" cx="12.1" cy="12.4" r=".7"/><path d="m7.4 10.7-.1-.1-4.4-4.5v-.3h2.6v-5c0-.2.1-.3.2-.3h3.6l.2.2v5h2.4c.2 0 .3.1.3.2v.2l-4.5 4.5h-.3Z" stroke="#FFF" stroke-width="1.1" fill="#F68B2D"/></g></g></svg>